<?xml version="1.0" encoding="utf-8"?>
<!-- Generated by IcoMoon.io -->
<!DOCTYPE svg PUBLIC "-//W3C//DTD SVG 1.1//EN" "http://www.w3.org/Graphics/SVG/1.1/DTD/svg11.dtd">
<svg fill="#fff" version="1.1" xmlns="http://www.w3.org/2000/svg" xmlns:xlink="http://www.w3.org/1999/xlink" width="24" height="28" viewBox="0 0 24 28">
<path d="M8.109 18.75q0.063-0.094-0.047-0.203-0.141-0.109-0.219-0.031-0.063 0.094 0.047 0.203 0.141 0.109 0.219 0.031zM7.672 18.109q-0.078-0.109-0.187-0.063-0.094 0.063 0 0.187 0.109 0.125 0.187 0.078 0.094-0.063 0-0.203zM7.031 17.484q0.031-0.063-0.078-0.125-0.109-0.031-0.125 0.031-0.047 0.078 0.063 0.125 0.125 0.031 0.141-0.031zM7.359 17.844q0.031-0.016 0.023-0.070t-0.055-0.086q-0.094-0.109-0.156-0.047t0.016 0.172q0.094 0.094 0.172 0.031zM8.703 19.016q0.031-0.109-0.141-0.172-0.141-0.047-0.203 0.063-0.031 0.109 0.141 0.172 0.141 0.047 0.203-0.063zM9.359 19.063q0-0.125-0.187-0.125-0.156 0-0.156 0.125t0.172 0.125 0.172-0.125zM9.969 18.953q-0.031-0.109-0.203-0.078t-0.141 0.141q0.031 0.125 0.187 0.094t0.156-0.156zM20 14q0-3.313-2.344-5.656t-5.656-2.344-5.656 2.344-2.344 5.656q0 2.609 1.531 4.695t3.938 2.898q0.281 0.047 0.414-0.078t0.133-0.313q0-0.812-0.016-1.484-0.094 0.016-0.242 0.039t-0.555 0.031-0.75-0.063-0.68-0.313-0.461-0.648q-0.359-0.922-0.891-1.156-0.031-0.016-0.070-0.055l-0.125-0.125t-0.109-0.148 0.063-0.117 0.305-0.055q0.094 0 0.234 0.031t0.469 0.242 0.516 0.555q0.25 0.438 0.586 0.656t0.68 0.219 0.594-0.055 0.469-0.148q0.109-0.734 0.516-1.078-0.766-0.094-1.344-0.289t-1.141-0.609-0.867-1.188-0.305-1.867q0-1.234 0.828-2.141-0.375-0.969 0.078-2.125 0.297-0.094 0.852 0.117t0.945 0.461l0.406 0.25q0.906-0.266 2-0.266t2 0.266q0.172-0.109 0.445-0.281t0.867-0.406 0.891-0.141q0.453 1.156 0.078 2.125 0.828 0.906 0.828 2.141 0 0.891-0.219 1.57t-0.555 1.094-0.836 0.695-0.977 0.406-1.070 0.187q0.547 0.484 0.547 1.484 0 0.625-0.008 1.391t-0.008 0.797q0 0.187 0.133 0.313t0.414 0.078q2.406-0.812 3.938-2.898t1.531-4.695zM24 6.5v15q0 1.859-1.32 3.18t-3.18 1.32h-15q-1.859 0-3.18-1.32t-1.32-3.18v-15q0-1.859 1.32-3.18t3.18-1.32h15q1.859 0 3.18 1.32t1.32 3.18z"></path>
</svg>
