<?xml version="1.0" encoding="UTF-8" standalone="no"?>
<!-- Created with Inkscape (http://www.inkscape.org/) -->

<svg
   xmlns:dc="http://purl.org/dc/elements/1.1/"
   xmlns:cc="http://creativecommons.org/ns#"
   xmlns:rdf="http://www.w3.org/1999/02/22-rdf-syntax-ns#"
   xmlns:svg="http://www.w3.org/2000/svg"
   xmlns="http://www.w3.org/2000/svg"
   xmlns:inkscape="http://www.inkscape.org/namespaces/inkscape"
   version="1.1"
   width="216.42284"
   height="273.53415"
   id="svg2">
  <defs
     id="defs4">
    <inkscape:path-effect
       effect="skeletal"
       id="path-effect3442" />
    <inkscape:path-effect
       effect="skeletal"
       id="path-effect3340" />
    <inkscape:path-effect
       effect="skeletal"
       id="path-effect3338" />
    <inkscape:path-effect
       effect="skeletal"
       id="path-effect3017" />
    <inkscape:path-effect
       effect="bend_path"
       id="path-effect3015" />
    <inkscape:path-effect
       effect="skeletal"
       id="path-effect3171" />
    <inkscape:path-effect
       effect="skeletal"
       id="path-effect3145" />
    <inkscape:path-effect
       effect="skeletal"
       id="path-effect3135" />
    <inkscape:path-effect
       effect="skeletal"
       id="path-effect3338-1" />
    <inkscape:path-effect
       effect="skeletal"
       id="path-effect3340-2" />
    <inkscape:path-effect
       effect="skeletal"
       id="path-effect3338-1-7" />
    <inkscape:path-effect
       effect="skeletal"
       id="path-effect3340-2-7" />
    <inkscape:path-effect
       effect="skeletal"
       id="path-effect3338-1-74" />
    <inkscape:path-effect
       effect="skeletal"
       id="path-effect3340-2-8" />
    <inkscape:path-effect
       effect="skeletal"
       id="path-effect3338-1-77" />
    <inkscape:path-effect
       effect="skeletal"
       id="path-effect3340-2-3" />
    <inkscape:path-effect
       effect="skeletal"
       id="path-effect3442-1" />
    <inkscape:path-effect
       effect="skeletal"
       id="path-effect3338-0" />
    <inkscape:path-effect
       effect="skeletal"
       id="path-effect3340-5" />
    <inkscape:path-effect
       effect="skeletal"
       id="path-effect3442-1-4" />
    <inkscape:path-effect
       effect="skeletal"
       id="path-effect3338-0-1" />
    <inkscape:path-effect
       effect="skeletal"
       id="path-effect3340-5-7" />
    <inkscape:path-effect
       effect="skeletal"
       id="path-effect3442-1-4-1" />
    <inkscape:path-effect
       effect="skeletal"
       id="path-effect3338-0-1-0" />
    <inkscape:path-effect
       effect="skeletal"
       id="path-effect3340-5-7-0" />
    <inkscape:path-effect
       effect="skeletal"
       id="path-effect3442-1-4-1-4" />
    <inkscape:path-effect
       effect="skeletal"
       id="path-effect3338-0-1-0-9" />
    <inkscape:path-effect
       effect="skeletal"
       id="path-effect3340-5-7-0-5" />
    <inkscape:path-effect
       effect="skeletal"
       id="path-effect3442-1-4-1-4-3" />
    <inkscape:path-effect
       effect="skeletal"
       id="path-effect3338-0-1-0-9-0" />
    <inkscape:path-effect
       effect="skeletal"
       id="path-effect3340-5-7-0-5-1" />
    <inkscape:path-effect
       effect="skeletal"
       id="path-effect3442-1-4-1-4-3-6" />
    <inkscape:path-effect
       effect="skeletal"
       id="path-effect3338-0-1-0-9-0-9" />
    <inkscape:path-effect
       effect="skeletal"
       id="path-effect3340-5-7-0-5-1-9" />
    <inkscape:path-effect
       effect="skeletal"
       id="path-effect3442-1-4-1-4-7" />
    <inkscape:path-effect
       effect="skeletal"
       id="path-effect3338-0-1-0-9-3" />
    <inkscape:path-effect
       effect="skeletal"
       id="path-effect3340-5-7-0-5-0" />
    <inkscape:path-effect
       effect="skeletal"
       id="path-effect3442-1-4-1-4-7-9" />
    <inkscape:path-effect
       effect="skeletal"
       id="path-effect3338-0-1-0-9-3-4" />
    <inkscape:path-effect
       effect="skeletal"
       id="path-effect3340-5-7-0-5-0-4" />
    <inkscape:path-effect
       effect="skeletal"
       id="path-effect3442-1-4-1-4-3-6-9" />
    <inkscape:path-effect
       effect="skeletal"
       id="path-effect3338-0-1-0-9-0-9-4" />
    <inkscape:path-effect
       effect="skeletal"
       id="path-effect3340-5-7-0-5-1-9-6" />
    <inkscape:path-effect
       effect="skeletal"
       id="path-effect3442-1-4-1-4-3-9" />
    <inkscape:path-effect
       effect="skeletal"
       id="path-effect3338-0-1-0-9-0-8" />
    <inkscape:path-effect
       effect="skeletal"
       id="path-effect3340-5-7-0-5-1-5" />
    <inkscape:path-effect
       effect="skeletal"
       id="path-effect3442-1-4-1-4-6" />
    <inkscape:path-effect
       effect="skeletal"
       id="path-effect3338-0-1-0-9-2" />
    <inkscape:path-effect
       effect="skeletal"
       id="path-effect3340-5-7-0-5-2" />
    <inkscape:path-effect
       effect="skeletal"
       id="path-effect3442-1-4-1-4-6-1" />
    <inkscape:path-effect
       effect="skeletal"
       id="path-effect3338-0-1-0-9-2-5" />
    <inkscape:path-effect
       effect="skeletal"
       id="path-effect3340-5-7-0-5-2-5" />
    <inkscape:path-effect
       effect="skeletal"
       id="path-effect3442-1-4-1-4-3-9-3" />
    <inkscape:path-effect
       effect="skeletal"
       id="path-effect3338-0-1-0-9-0-8-2" />
    <inkscape:path-effect
       effect="skeletal"
       id="path-effect3340-5-7-0-5-1-5-8" />
    <inkscape:path-effect
       effect="skeletal"
       id="path-effect3442-1-4-1-4-3-6-9-7" />
    <inkscape:path-effect
       effect="skeletal"
       id="path-effect3338-0-1-0-9-0-9-4-1" />
    <inkscape:path-effect
       effect="skeletal"
       id="path-effect3340-5-7-0-5-1-9-6-5" />
    <inkscape:path-effect
       effect="skeletal"
       id="path-effect3442-1-4-1-4-7-9-3" />
    <inkscape:path-effect
       effect="skeletal"
       id="path-effect3338-0-1-0-9-3-4-2" />
    <inkscape:path-effect
       effect="skeletal"
       id="path-effect3340-5-7-0-5-0-4-9" />
    <inkscape:path-effect
       effect="skeletal"
       id="path-effect3442-1-4-1-4-6-1-3" />
    <inkscape:path-effect
       effect="skeletal"
       id="path-effect3338-0-1-0-9-2-5-9" />
    <inkscape:path-effect
       effect="skeletal"
       id="path-effect3340-5-7-0-5-2-5-8" />
    <inkscape:path-effect
       effect="skeletal"
       id="path-effect3442-1-4-1-4-3-9-3-7" />
    <inkscape:path-effect
       effect="skeletal"
       id="path-effect3338-0-1-0-9-0-8-2-1" />
    <inkscape:path-effect
       effect="skeletal"
       id="path-effect3340-5-7-0-5-1-5-8-6" />
    <inkscape:path-effect
       effect="skeletal"
       id="path-effect3442-1-4-1-4-3-6-9-7-9" />
    <inkscape:path-effect
       effect="skeletal"
       id="path-effect3338-0-1-0-9-0-9-4-1-4" />
    <inkscape:path-effect
       effect="skeletal"
       id="path-effect3340-5-7-0-5-1-9-6-5-1" />
    <inkscape:path-effect
       effect="skeletal"
       id="path-effect3442-1-4-1-4-7-9-3-6" />
    <inkscape:path-effect
       effect="skeletal"
       id="path-effect3338-0-1-0-9-3-4-2-7" />
    <inkscape:path-effect
       effect="skeletal"
       id="path-effect3340-5-7-0-5-0-4-9-3" />
    <inkscape:path-effect
       effect="skeletal"
       id="path-effect3442-1-4-1-4-3-9-3-7-5" />
    <inkscape:path-effect
       effect="skeletal"
       id="path-effect3338-0-1-0-9-0-8-2-1-7" />
    <inkscape:path-effect
       effect="skeletal"
       id="path-effect3340-5-7-0-5-1-5-8-6-7" />
    <inkscape:path-effect
       effect="skeletal"
       id="path-effect3442-1-4-1-4-3-6-9-7-9-6" />
    <inkscape:path-effect
       effect="skeletal"
       id="path-effect3338-0-1-0-9-0-9-4-1-4-0" />
    <inkscape:path-effect
       effect="skeletal"
       id="path-effect3340-5-7-0-5-1-9-6-5-1-5" />
    <inkscape:path-effect
       effect="skeletal"
       id="path-effect3442-1-4-1-4-3-9-3-7-9" />
    <inkscape:path-effect
       effect="skeletal"
       id="path-effect3338-0-1-0-9-0-8-2-1-4" />
    <inkscape:path-effect
       effect="skeletal"
       id="path-effect3340-5-7-0-5-1-5-8-6-1" />
    <inkscape:path-effect
       effect="skeletal"
       id="path-effect3145-6" />
    <inkscape:path-effect
       effect="skeletal"
       id="path-effect3442-1-4-1-45" />
    <inkscape:path-effect
       effect="skeletal"
       id="path-effect3338-0-1-0-7" />
    <inkscape:path-effect
       effect="skeletal"
       id="path-effect3340-5-7-0-9" />
  </defs>
  <metadata
     id="metadata7">
    <rdf:RDF>
      <cc:Work
         rdf:about="">
        <dc:format>image/svg+xml</dc:format>
        <dc:type
           rdf:resource="http://purl.org/dc/dcmitype/StillImage" />
        <dc:title></dc:title>
      </cc:Work>
    </rdf:RDF>
  </metadata>
  <g
     transform="translate(-291.03981,-443.83029)"
     id="layer1">
    <g
       transform="matrix(9.3619637,0,0,9.3619637,-392.53866,129.95977)"
       id="text3150-8-0-8-0-2"
       style="font-size:40px;font-style:normal;font-weight:normal;line-height:125%;letter-spacing:0px;word-spacing:0px;fill:#272a2b;fill-opacity:1;stroke:none;font-family:Arial;-inkscape-font-specification:Sans">
      <path
         d="m 95.438444,51.412049 c 0.09535,0.222382 0.164525,0.367692 0.0847,-0.0019 -0.160222,-0.166752 -0.163006,-0.294528 -0.152207,-0.405191 -0.393832,-0.43193 0.04348,0.262182 0.06751,0.407091 z M 81.180117,34.281666 c 0.465569,-0.08492 0.458941,-0.157592 0.64277,-0.232089 -0.111493,0.01357 -0.22291,0.02811 -0.334234,0.04364 -0.102635,0.01583 -0.195479,0.03192 -0.162928,0.04725 0.592059,-0.04702 -0.469821,0.112316 -0.145608,0.141199 z m 13.261487,15.580766 c -0.328767,-0.397856 -0.424133,-0.584777 -0.818507,-0.924809 -0.07944,0.02621 0.262974,0.303131 0.184959,0.327312 0.351195,0.253645 0.577727,0.614704 0.633548,0.597497 z M 80.756663,49.743767 c -0.139615,-0.08288 0.03802,-0.114704 -0.44929,-0.257042 0.104024,0.203236 -0.875114,-0.281436 -0.525199,-0.021 0.247236,0.0047 0.788002,0.282459 0.974489,0.278042 z m 0.531583,-0.04944 c -0.0358,-0.008 -0.06785,-0.0156 -0.09691,-0.02293 -0.288598,-0.07895 -0.28528,-0.119503 -0.698625,-0.226298 0.293353,0.219754 0.519848,0.381723 0.657654,0.383538 l 0,0 0,0 c 0.06807,-7.69e-4 0.114433,-0.04104 0.137881,-0.13431 z M 76.914338,35.459634 c -0.09745,0.06126 -0.19126,0.113783 -0.280173,0.161046 l 0,0 c -0.284514,0.152634 -0.519031,0.255819 -0.63231,0.40252 0.206819,-0.144221 0.451415,-0.228626 0.661193,-0.357313 0.09174,-0.05593 0.176826,-0.121215 0.25129,-0.206253 z m -3.403223,7.610303 c 0.0085,0.220185 -0.03715,0.07442 -0.08775,-0.11883 -0.0506,-0.193247 -0.09885,-0.43395 -0.133042,-0.392036 0.03223,0.255259 0.09576,0.92402 0.140053,0.885115 -0.04722,-0.287711 0.027,0.0087 0.09934,0.347995 0.07446,0.11568 0.07817,-0.02829 0.06184,-0.217398 -0.01634,-0.189106 -0.04738,-0.425497 -0.08044,-0.504846 z m 9.771248,7.457004 c -0.287757,-0.14199 0.195616,-0.120064 -0.104104,-0.288116 -0.505007,-0.102113 -0.616942,-0.174724 -0.946512,-0.266836 0.117544,0.104918 -0.267818,0.01109 -0.347892,0.03777 1.006692,0.227613 0.381072,0.302617 1.067007,0.490797 -0.131517,-0.121494 0.528201,0.09493 0.331501,0.02638 z M 74.846949,37.156967 c 0.01075,-0.04178 -0.03393,-0.03496 0.08059,-0.169093 0.194317,-0.184441 0.324105,-0.3214 0.499188,-0.526641 -0.0024,-0.05936 -0.184642,0.108924 -0.196333,0.06094 0.34278,-0.402812 0.734033,-0.690693 1.229961,-1.115098 -0.582593,0.3796 -1.165916,0.975353 -1.571216,1.304464 0.07314,0.03706 -0.08332,0.382112 -0.04219,0.445428 z m 15.063142,9.573037 c 0.189094,0.0386 0.440477,0.136365 0.696062,0.240689 0.268698,0.10461 0.541285,0.218155 0.762072,0.272295 -0.107427,-0.06915 -0.426759,-0.203933 -0.746976,-0.313723 -0.452164,-0.163072 -0.903041,-0.282051 -0.711158,-0.199261 z m -7.595703,-8.048132 c -0.20338,0.08597 0.383333,0.0099 -0.114983,0.161926 0.348897,-0.06408 0.539872,-0.111121 0.550716,-0.172547 -0.283321,0.03827 -0.288406,0.0028 -0.435733,0.01062 z m -1.949336,0.602879 c -0.283516,0.133023 -0.390211,0.244966 -0.464242,0.341329 -0.04969,0.06548 -0.08354,0.125012 -0.13029,0.19363 0.06769,-0.04381 0.128344,-0.08373 0.183679,-0.121563 l 0,0 c 0.210042,-0.144132 0.360308,-0.256678 0.57476,-0.360179 -0.242273,0.112181 -0.08742,-0.05234 -0.163907,-0.05322 z m 1.989261,-0.347484 c 0.428813,-0.06097 1.196768,-0.03263 1.437873,-0.07775 -0.381621,-0.0063 -1.064557,-0.04578 -1.437873,0.07775 z m -0.906034,5.148788 c 0.181796,0.04849 0.781792,0.108724 0.188142,-0.106639 0.395241,0.227903 -0.512124,-0.06796 -0.188142,0.106639 z m 3.638075,5.84259 c -0.476132,-0.148393 0.416643,0.03266 0.343008,-0.04065 0.435663,0.08473 -0.138235,0.08119 0.296139,0.166235 -0.113178,0.01437 -0.368226,-0.07142 -0.312098,-0.09741 -0.142914,-0.02267 -0.287754,-0.04612 -0.327049,-0.02817 z m -2.065347,-0.448777 c -0.333641,-0.066 -0.415307,-0.112293 -0.627235,-0.170195 0.146302,-7.99e-4 0.253157,-0.01583 0.648736,0.07864 z m -2.9995,-0.726645 c 0.236904,-0.05239 0.408557,0.05266 0.652988,0.08416 0.201429,0.09234 0.292318,0.161348 0.46485,0.135693 0.209395,0.06633 0.11488,0.09313 0.131881,0.134181 -0.500885,-0.14267 -0.675309,-0.143768 -1.249719,-0.354034 z m 1.043637,0.492006 c -0.308844,-0.130453 -0.02024,-0.08795 -0.612481,-0.230148 0.0311,-0.04855 0.461911,0.09162 0.85754,0.200137 0.03232,0.0082 0.06439,0.01624 0.09595,0.02407 0.07323,0.05087 -0.0045,0.04022 -0.107222,0.0192 l 0,0 c -0.143128,-0.03227 -0.334656,-0.08763 -0.233787,-0.01326 z m 9.866728,-1.393154 c -0.220484,-0.03451 -0.382695,-0.10055 -0.579158,-0.18586 -0.172984,-0.07829 -0.372462,-0.172715 -0.6616,-0.265533 0.162657,0.0077 0.422135,0.09365 0.684338,0.203132 0.196126,0.07837 0.393437,0.170272 0.55642,0.248261 z M 81.360246,34.373018 c 0.149981,-0.0038 0.373221,-0.02819 0.65893,-0.06245 -0.139617,0.0505 -0.237141,0.09881 -0.645126,0.155446 z m 3.294133,-0.217916 c -2.237722,-0.178547 -0.709606,0.661554 0,-3e-6 z m -8.567778,2.253012 c 0.03803,-0.0056 -0.03748,0.05927 -0.115643,0.129017 -0.1691,0.156556 -0.06605,0.137066 -0.06378,0.18269 -0.196815,0.151901 -0.407347,0.351559 -0.42896,0.288969 0.346245,-0.33682 0.284273,-0.344703 0.608383,-0.600676 z m 3.823396,-1.68431 c -0.21165,0.06757 -0.28596,0.125556 -0.296755,0.173975 -0.700107,0.175893 -1.386091,0.448455 -1.459096,0.356792 0.393913,-0.129167 0.427682,-0.262799 0.128229,-0.130142 0.510679,-0.279093 0.692443,-0.142204 0.354768,-0.01229 0.297802,-0.02943 0.391145,-0.215707 0.945051,-0.327956 -0.06757,0.03325 0.228472,-0.05118 0.435823,-0.102382 0.207351,-0.0512 0.322625,-0.08319 -0.10802,0.042 z M 78.18264,48.482202 c -0.530712,-0.22184 -0.376483,-0.360089 0.199295,-0.03678 -0.243176,-0.05068 -0.335233,-0.109287 -0.199295,0.03678 z M 77.633001,35.339339 c 0.163743,-0.06377 0.179261,-0.03266 0.484146,-0.171163 0.01729,0.07593 -0.15149,0.193342 -0.548821,0.413992 0.251903,-0.20729 0.272789,-0.236119 0.06467,-0.242829 z m 0.03108,0.06317 c -0.289187,0.203587 -0.525701,0.319391 -0.847354,0.503924 l 0,0 c -0.0083,0.0048 -0.01669,0.0096 -0.02512,0.01454 0.007,-0.0061 0.01443,-0.01246 0.02225,-0.01903 l 0,0 c 0.185897,-0.155876 0.60798,-0.421515 0.850224,-0.499434 z m 8.870547,15.47173 c -0.388422,-0.0895 -0.761315,-0.177304 -0.942693,-0.247694 0.157786,-0.01991 0.916495,0.161093 0.942693,0.247694 z m 0.06319,-4.629584 c -0.06902,0.103151 -0.700606,-0.111413 -1.150963,-0.203178 -0.116192,-0.02299 -0.220146,-0.03827 -0.299002,-0.03824 -0.216706,-0.138937 -0.0193,-0.108361 0.314619,-0.03029 0.334753,0.08019 0.805347,0.211374 1.135346,0.271708 z m -1.212094,4.550701 c -0.694354,-0.198191 0.15756,-0.04235 0.190189,-0.100161 0.452102,0.140066 -0.07175,0.102527 -0.190189,0.100161 z m -6.09761,-7.274945 c 0.117392,0.140332 0.129184,0.165974 0.115104,0.180145 -0.01408,0.01417 -0.05087,0.01469 -0.0031,0.09861 -0.113022,-0.114283 -0.265665,-0.251543 -0.470216,-0.479027 -0.0017,-0.07887 0.154548,0.112697 0.31028,0.251464 -0.09691,-0.129675 -0.01236,-0.06095 0.04789,-0.05119 z m 4.953353,-5.142421 c -0.361321,0.01197 -0.592536,0.01062 -0.770802,1.56e-4 -0.02278,0.02857 0.03766,0.0395 0.156355,0.03974 -0.07802,0.01843 -0.475241,0.05217 -0.832373,0.09059 -0.357132,0.03842 -0.676376,0.08239 -0.647155,0.03459 0.20061,-0.03723 0.407913,-0.06553 0.436388,-0.0416 0.254717,-0.03776 0.330663,-0.07714 0.28365,-0.126383 0.384329,0.02729 1.385247,-0.06932 1.373937,0.0029 z m 2.828968,7.279153 c 0.168519,0.0086 0.690282,0.149418 1.072208,0.284095 l 0,0 c 0.01252,0.0041 0.0249,0.0082 0.03712,0.0123 -0.01171,-9.4e-5 -0.02497,-7.68e-4 -0.03961,-0.002 -0.198523,-0.01845 -0.662478,-0.143531 -0.926658,-0.187083 0.02296,-0.029 0.03966,-0.05903 -0.143063,-0.107359 z m -7.818607,-3.121545 c -0.0851,-0.102916 -0.234083,-0.265929 -0.21313,-0.529487 0.06275,0.13376 0.118854,0.329751 0.21313,0.529487 z m 3.252485,4.987889 c 1.943243,-1.085152 -11.779374,-7.055163 -1.702348,-9.674848 0.82514,-0.336346 3.664522,-0.269541 3.664522,-0.269541 0,0 5.452698,-3.207907 -0.03906,-3.493357 -0.145275,-0.01167 -0.282005,-0.02371 -0.40715,-0.03714 0.131105,-0.0033 0.292673,-6e-4 0.40715,-0.0028 l 0,0 c 0.07963,-0.0036 0.13849,-0.0091 0.150755,-0.02034 -0.0503,-0.0012 -0.100583,-0.0021 -0.150755,-0.0027 -0.563616,-0.02289 -1.177277,-0.01255 -1.701242,0.0081 -0.523965,0.02068 -0.956137,0.0487 -1.137209,0.0098 -0.659356,0.124374 -0.96484,0.244314 -1.24565,0.332249 -0.142267,0.041 -0.280864,0.07764 -0.472585,0.121463 0.216874,-0.05279 0.375112,-0.0735 0.484525,-0.07609 l 0,0 c 0.15606,-0.0094 0.218757,0.01678 0.203101,0.07005 -0.05962,0.01839 -0.116465,0.03607 -0.170721,0.05301 -0.513639,0.147874 -0.795226,0.242607 -1.030012,0.305181 -0.234785,0.06257 -0.426721,0.0974 -0.808244,0.258374 -0.333375,0.140765 -0.885739,0.433346 -1.411167,0.791762 -0.538612,0.385971 -0.980493,0.864334 -1.150926,1.048664 -0.494708,0.53424 -0.824638,0.888479 -1.217066,1.618822 -0.225735,0.46497 -0.466513,1.087005 -0.553822,2.015715 0.107487,-0.528244 0.266989,-0.99844 0.44903,-1.411093 -0.29712,0.818405 -0.463495,1.65541 -0.492334,2.482117 -0.101648,1.280165 0.256905,2.763186 1.21762,4.259545 0.848584,1.083587 1.832284,1.880891 2.830637,2.378095 -0.94484,-0.523856 -1.934437,-1.332732 -2.778816,-2.418404 -0.988002,-1.546089 -1.298542,-3.040631 -1.189187,-4.219236 0.03918,-0.794908 0.217436,-1.536273 0.458362,-2.156278 -0.204196,0.689482 -0.277763,1.350001 -0.270251,1.675072 0.06317,0.03299 0.113992,-0.278094 0.200395,-0.642209 0.0864,-0.364114 0.217594,-0.78172 0.317645,-0.960266 -0.249161,0.941768 -0.284281,1.558376 -0.296872,2.08368 -0.02585,0.397277 -0.01402,0.762574 0.05445,1.179628 0.06847,0.417054 0.190016,0.88875 0.483475,1.496514 -0.09404,-0.0481 0.123979,0.536336 0.610395,1.256538 l 10e-7,0 c 0.30182,0.367094 0.668106,0.735106 0.976661,1.012165 1.452686,1.081265 3.263327,1.641455 4.922388,1.903385 1.047251,0.16504 1.82135,0.505932 3.019443,0.690773 l 0,0 0,0 c 0.0087,9.15e-4 0.01718,0.0018 0.02557,0.0026 3.7318,0.92393 3.268204,0.713868 -0.01527,-0.04779 l 0,-10e-7 c -2.092862,-0.399244 -1.777626,-0.506773 -0.120473,-0.103501 0.03548,-0.01822 0.08682,-0.02935 0.151902,-0.03442 2.874901,-0.09806 7.738598,1.938269 9.327224,1.176944 0.36855,0.0173 -0.556894,-0.490925 -0.762355,-0.605814 -0.86948,-0.80304 -1.953679,-1.26865 -3.024432,-1.798662 l -10e-7,0 c -0.01606,-0.0097 -0.03167,-0.0194 -0.04681,-0.029 0.01536,-10e-4 0.03403,-3.06e-4 0.05646,0.0025 0.08285,0.0092 0.217224,0.04499 0.42382,0.126286 0.0907,0.173219 0.837339,0.382458 1.054878,0.461766 0.257301,0.161556 0.475049,0.321452 0.652395,0.471586 0.0067,0.0055 0.01327,0.01107 0.01981,0.01659 0.08876,0.02531 0.05465,-0.01521 0.0046,-0.05998 l 0,0 c -0.07139,-0.06514 -0.174569,-0.139496 0.01909,-0.0339 0.0071,0.0038 0.01469,0.0079 0.02263,0.01222 0.09816,0.06201 0.148295,0.178701 0.222442,0.268051 0.240876,0.201795 0.349514,0.220509 0.668423,0.470584 0.0752,-0.04565 -0.400308,-0.389857 -0.453471,-0.50081 0.413504,0.262586 0.445384,0.430544 0.671127,0.496165 -0.285139,-0.274388 -0.672136,-0.589422 -1.089103,-0.820883 -0.139776,-0.07916 -0.281297,-0.150972 -0.420629,-0.212068 -0.421576,-0.370985 -1.299141,-0.718608 -1.694196,-0.975107 l 0,0 c -0.01634,-0.01098 -0.03183,-0.02186 -0.0464,-0.03265 0.01748,0.0051 0.03504,0.0102 0.05268,0.01543 0.756986,0.212356 1.636055,0.616912 2.261495,0.932806 0.39044,0.193563 0.684104,0.361235 0.831523,0.386284 -0.293037,-0.219103 -0.585359,-0.333568 -0.806993,-0.429843 -0.113086,-0.04989 -0.207497,-0.09654 -0.276312,-0.152525 0.02062,-0.01616 0.167013,0.05981 0.292366,0.124017 l 0,0 c 0.110017,0.05531 0.204285,0.102829 0.195586,0.0688 -0.05337,-0.02408 -0.115082,-0.05524 -0.18321,-0.09078 -0.486641,-0.258877 -1.329686,-0.739823 -1.512321,-0.726756 0.380935,0.178328 0.459744,0.204623 0.743965,0.413473 -0.676103,-0.323897 -1.081073,-0.453446 -1.521903,-0.591883 -0.321318,-0.106303 -0.663998,-0.215547 -1.167501,-0.363488 0.238739,-0.03398 -0.75513,-0.242304 -0.607369,-0.29447 0.767454,0.218025 1.273709,0.324905 1.819874,0.53445 l 10e-7,0 c 0.136612,0.04997 0.275301,0.107083 0.41966,0.175672 0.373937,0.04658 1.893827,0.731839 1.893827,0.731839 l 0,0 c 0.339198,0.166491 0.634439,0.335953 0.834547,0.430192 -0.140107,-0.123174 -0.431036,-0.324201 -0.786939,-0.514731 -0.517106,-0.282536 -1.165764,-0.557267 -1.573787,-0.715934 -0.408023,-0.158668 -0.57034,-0.228526 -0.113923,-0.109103 -0.252043,-0.108117 -0.436466,-0.170464 -0.593577,-0.216958 -0.195166,-0.061 -0.347858,-0.09661 -0.544886,-0.151939 -0.138103,-0.08944 -0.549289,-0.258362 -0.813771,-0.3796 -0.264482,-0.121237 -0.38,-0.208297 0.08772,-0.145739 -0.749954,-0.214551 -0.557587,-0.294067 -0.618987,-0.340524 -0.203185,0.01873 -0.533186,-0.160611 -0.480945,-0.190076 -0.01284,-0.0029 -0.02558,-0.0057 -0.03822,-0.0085 -1.055256,-0.252652 -1.377186,-0.231239 -2.033143,-0.492753 0.07411,0.11552 0.451514,0.257673 0.912901,0.410549 -0.159194,-0.03863 -0.194013,-0.02722 -0.322875,-0.05343 -0.435951,-0.168553 -0.774293,-0.251605 -1.127542,-0.31926 l 0,0 c -0.395142,-0.07324 -0.809075,-0.128865 -1.402367,-0.269634 0.06472,0.100765 -0.160425,0.08699 -0.502045,0.02471 0.0056,-0.02288 -0.120375,-0.05775 -0.14678,-0.08394 0.123146,0.02444 0.309929,0.07453 0.320351,0.05328 -0.82483,-0.167543 -0.698683,-0.214461 -0.765706,-0.259717 -0.177999,-0.0049 -0.322492,-0.04663 -0.440011,-0.09673 -0.133861,-0.05904 -0.228213,-0.131746 -0.29781,-0.166424 -0.264429,-0.0028 -0.704143,-0.237629 -0.830553,-0.310403 -0.236407,-0.01539 -0.533436,-0.0688 -0.815706,-0.280649 0.05663,0.104308 -0.07227,0.09247 -0.284321,0.0075 -0.237949,-0.09518 -0.577031,-0.301134 -0.821693,-0.521846 -0.244662,-0.220712 -0.390533,-0.450619 -0.411545,-0.52483 l 0,0 0,0 c -1.75e-4,-7.58e-4 -3.33e-4,-0.0015 -4.74e-4,-0.0022 5.09e-4,4.67e-4 0.001,9.34e-4 0.0015,0.0014 0.365237,0.407002 0.675893,0.713389 0.894205,0.790593 -0.145395,-0.08854 -0.10479,-0.139876 0.03706,-0.06005 0.04586,0.0595 0.167969,0.146601 0.339277,0.240235 l 0,0 c 0.03135,0.0168 0.06414,0.03379 0.09818,0.05089 -0.05183,-0.155464 0.143682,-0.186864 0.132998,-0.275154 -0.03623,-0.01043 -0.07047,-0.02112 -0.103027,-0.03203 l 0,0 c -0.206127,-0.06754 -0.337385,-0.144261 -0.482659,-0.237512 -0.145275,-0.09325 -0.309187,-0.19922 -0.540966,-0.371584 0.131532,-0.05589 -0.115538,-0.140046 -0.189713,-0.249557 -3.54e-4,-4.32e-4 -7.03e-4,-8.65e-4 -0.001,-0.0013 -0.10323,-0.131124 -0.09898,-0.221705 -0.07827,-0.239653 0.02071,-0.01795 0.06892,0.01817 0.120944,0.04474 0.05203,0.02657 0.108159,0.04177 0.135881,0.02751 0.02772,-0.01426 0.02082,-0.04223 -0.01136,-0.164043 -0.128505,-0.171921 -0.189982,-0.491107 -0.215949,-0.818574 -0.0031,-0.209283 0.01784,-0.407423 0.06066,-0.582767 -0.04042,0.271974 -0.08756,0.400281 -0.130203,0.388349 -0.04264,-0.01193 -0.07525,-0.174689 0.01537,-0.412469 l -1.33e-4,2.12e-4 c -0.0382,0.03746 -0.05374,-0.06034 -0.07119,-0.138784 -0.01744,-0.07845 -0.04158,-0.141043 -0.111907,-0.01299 0.01987,0.02911 -0.0074,0.175686 -0.03231,0.314442 -0.0249,0.138756 -0.05018,0.269546 -0.07152,0.240148 -0.01238,-0.30098 -0.01027,-0.369237 -0.09564,-0.243754 0.0029,-0.242131 0.09836,-0.470278 -0.03116,-0.245956 0.04051,-0.210036 0.09746,-0.390701 0.166324,-0.55039 0.142321,-0.358838 0.397696,-0.641376 0.761922,-0.920528 0.347335,-0.26469 0.845786,-0.491742 1.671352,-0.717808 0.08433,-0.09862 -0.391801,0.06705 -0.308548,-0.03377 0.09468,-0.02269 0.202815,-0.05004 0.310847,-0.0756 0.23794,-0.05696 0.474994,-0.0945 0.53791,-0.06649 -0.242956,0.04591 -0.352441,0.09588 -0.403648,0.139129 0.422717,-0.139604 1.047323,-0.184488 1.574275,-0.194053 -0.396216,0.05202 -0.260594,0.12023 0.01031,0.140828 -0.02971,-0.01984 0.260031,-0.01815 0.566256,0.01138 0.306225,0.02953 0.873475,-0.04722 0.887194,0.0013 1.51891,0.428955 1.385372,-4.37769 -0.176882,-4.602282 -0.157227,-0.0215 -0.18411,-0.05732 -10e-7,-0.115299 0.0072,-0.0023 0.01478,-0.0046 0.02267,-0.007 1.324463,0.106153 2.155911,-0.317672 -0.02268,-0.05405 -0.12585,0.01477 -0.259728,0.02875 -0.477043,0.03485 -0.03808,-0.04353 0.187363,-0.05467 0.167649,-0.09659 -0.199343,-0.0012 -0.474359,0.01448 -0.504118,-0.01184 0.348188,-0.0089 0.611495,-0.01441 0.813512,-0.02273 l 0,0 c 2.507333,-0.03399 1.912102,-0.545153 0,-0.12575 -0.19016,0.04066 -0.383419,0.08234 -0.646502,0.119715 -0.293399,-0.01368 -0.585226,-0.02081 -0.509273,-0.09858 -0.694592,0.03105 -0.429567,0.14468 -0.997059,0.213693 0.334411,-0.03223 0.669211,-0.05617 1.003932,-0.0725 -0.09311,0.08898 0.200342,0.104539 0.340966,0.150678 -0.312975,0.0052 -0.36557,0.03974 -0.663354,0.05567 -0.120088,-0.03215 -0.205531,-0.194395 -0.509858,-0.102676 0.361015,0.0037 -0.114241,0.06622 0.177684,0.103258 -0.546333,0.0087 -0.480126,0.04646 -0.823005,0.129877 0.239793,-0.01618 0.85201,-0.112627 0.828603,-0.05959 -1.024089,0.155227 -1.61769,0.241788 -2.424593,0.381238 l 0,0 c -0.06639,0.01142 -0.134194,0.02351 -0.203731,0.03648 0.163983,-0.03735 0.214241,-0.0067 0.0106,0.04592 0.0068,-0.103368 -0.368584,0.0733 -0.487197,0.122362 -0.340174,0.05026 -0.312091,0.102736 -0.650136,0.173315 0.07241,-0.111721 -0.08416,-0.138657 -0.252588,-0.21123 0.486604,-0.187594 0.631766,-0.275911 0.5089,-0.288671 -0.122865,-0.01276 -0.51711,0.05812 -1.065171,0.29978 -0.06261,0.07611 0.164925,-0.01651 0.402821,-0.102366 0.237897,-0.08585 0.486233,-0.164386 0.450485,-0.10859 -0.432342,0.163875 -0.411693,0.249005 -0.76444,0.428463 -0.04358,-0.01065 -0.19044,0.0393 -0.33728,0.09403 0.0835,0.02356 -0.617864,0.435386 -0.569655,0.411151 -0.274722,0.137944 -0.303438,0.173159 -0.32113,0.195579 -0.01769,0.02242 -0.02391,0.03344 -0.239214,0.157152 l 0,0 c 0,0 -0.185987,0.107365 -0.328446,0.196197 l 0.06847,0.0958 c -0.406833,0.2667 -0.342439,0.287536 -0.65417,0.55892 -0.153945,0.02697 -0.428747,0.199416 -0.742007,0.494551 0.07736,-0.03182 -0.34292,0.565647 -0.415574,0.572705 0.170076,-0.291848 0.296014,-0.486158 0.432565,-0.673353 0.136551,-0.187195 0.284542,-0.368107 0.534822,-0.602204 -0.240013,0.161488 -0.701538,0.706134 -0.94067,1.125588 -0.119565,0.209727 -0.191809,0.38157 -0.196429,0.436678 -0.0046,0.05511 0.05299,-0.0091 0.227588,-0.246316 -0.09001,0.162375 -0.255241,0.430392 -0.30183,0.563516 -0.01917,0.05625 -0.01921,0.08757 0.01144,0.07644 0.0097,-0.01706 0.01972,-0.0348 0.03004,-0.05294 l 0,0 0,0 c 0.09837,-0.168696 0.223895,-0.368831 0.259429,-0.377498 0.07444,-0.0061 0.04211,0.09144 -0.157213,0.435394 -0.0095,0.01667 -0.01926,0.03394 -0.02937,0.05183 -0.04358,-0.13273 -0.243463,0.266969 -0.439339,0.743413 0.0733,-0.219204 0.08162,-0.323531 0.255158,-0.645085 -0.256279,0.349271 -0.15045,0.0077 -0.320173,0.241651 -0.100402,0.342919 0.06773,0.121921 0.150261,0.06574 -0.244958,0.552193 -0.375793,1.062908 -0.449053,0.953888 -0.100537,0.355868 -0.05744,0.304263 -0.02084,0.255242 0.0366,-0.04902 0.06624,-0.09469 8.65e-4,0.276599 -0.05744,0.242035 -0.101229,0.412328 -0.145736,0.503304 0.01308,-0.399481 -0.01936,-0.569955 0.0097,-0.890345 -0.06599,0.196285 -0.134421,0.462688 -0.173857,0.871612 -0.01012,0.270475 0.02228,0.15164 0.05206,0.02716 0.02978,-0.124484 0.05831,-0.255037 0.04168,-0.01646 -0.02552,0.299513 -0.04838,0.353494 -0.07539,0.414768 -0.027,0.06127 -0.05841,0.130796 -0.04985,0.455831 0.0721,-0.528164 0.08171,-0.205431 0.100111,0.169018 0.01523,0.374786 0.05958,0.809417 0.100343,0.519312 -0.04106,-0.214877 -0.04853,-0.377584 -0.04597,-0.519312 0.0028,-0.27483 0.03918,-0.472752 0.02308,-0.857327 0.0309,-0.0071 0.05577,-0.217577 0.08836,-0.166235 -0.03026,0.425293 -0.05413,0.809981 -0.04525,1.023562 0.0037,0.105753 0.01506,0.169798 0.03844,0.175484 0.01837,-0.02015 0.01666,-0.09177 0.01347,-0.175484 l 0,0 c -0.006,-0.136253 -0.01447,-0.30614 0.03744,-0.334461 0.0045,0.12387 0.01442,0.229204 0.0258,0.334461 0.01554,0.150657 0.03342,0.302111 0.05289,0.50889 -0.02593,0.331807 -0.08324,0.05711 -0.141002,0.0078 0.145771,0.560653 0.119695,1.112893 0.306391,1.512564 -0.0068,0.02804 0.0195,0.201632 0.03003,0.306941 0.01054,0.105309 -0.0049,0.144058 -0.09521,-0.106898 -0.07388,-0.245974 -0.03997,-0.558848 -0.130532,-0.508493 -0.04643,-0.190452 0.01015,0.44312 -0.0041,0.54936 0.07214,0.02599 0.09626,0.0198 0.223945,0.327153 l 0,0 c 0.05827,0.136384 0.138383,0.335771 0.277491,0.619496 -0.107465,-0.148113 -0.155341,-0.11876 -0.255546,-0.272651 0.21196,0.595058 0.484668,0.777563 0.517796,0.934558 0.03824,0.116025 -0.08547,-0.05162 -0.173959,-0.181202 -0.08849,-0.129584 -0.1518,-0.215323 0.0011,0.07863 0.09327,0.0614 0.185654,0.214015 0.315023,0.442174 0.135464,0.11609 -0.244832,-0.482079 0.07639,-0.05443 0.135693,0.192466 0.05948,0.157096 0.176134,0.313922 -0.175678,-0.364251 0.265464,0.252502 0.09183,-0.07358 0.05378,0.06853 0.102218,0.124961 0.146802,0.173715 0.08131,0.08633 0.149209,0.148109 0.217988,0.208472 -0.189647,-0.07215 0.392083,0.442466 0.445965,0.552115 -0.313052,-0.282038 -0.335708,-0.289371 -0.306181,-0.214255 0.02953,0.07512 0.12354,0.222756 0.06133,0.217543 0.270184,0.137734 0.390253,0.432223 0.702132,0.563087 0.129227,-0.05115 -0.422284,-0.336894 -0.518682,-0.495412 0.355812,0.275782 0.389749,0.270175 0.341671,0.206713 -0.04808,-0.06346 -0.167374,-0.198397 -0.101928,-0.220042 0.232711,0.190648 0.331911,0.22371 0.436996,0.266855 0.105085,0.04315 0.215804,0.09744 0.507598,0.281125 0.03115,0.01962 0.06441,0.04077 0.10004,0.06357 -0.05418,-0.02311 -0.09186,-0.03535 -0.115277,-0.03835 l 0,0 0,0 c -0.03269,-0.0045 -0.03799,0.0088 -0.02096,0.03469 0.02607,0.04049 0.107011,0.11175 0.222816,0.190206 0.05163,-0.03351 0.342505,0.119294 0.672526,0.279604 0.330021,0.16031 0.700516,0.326107 0.882303,0.369013 -0.363728,-0.213176 -0.218342,-0.154173 -0.06983,-0.09201 0.148518,0.06216 0.300435,0.12666 -0.03571,-0.08278 0.158751,0.0825 0.318443,0.138089 0.461805,0.184622 l 0,0 c 0.197673,0.05931 0.364141,0.103771 0.461305,0.182397 -0.219244,-0.03815 -0.696121,-0.163531 -0.362235,0.01778 0.670398,0.267083 0.458858,0.05038 0.531903,-0.0078 0.561318,0.218017 0.844272,0.2353 1.09856,0.353617 -0.04863,0.02065 -0.271886,-0.04045 -0.335327,-0.02781 0.747458,0.233256 0.39554,0.06351 0.656215,0.096 0.09135,0.05094 0.1521,0.100775 0.199822,0.146753 0.08334,0.07859 0.125991,0.146313 0.224462,0.182735 0.01165,-0.0118 0.02919,-0.02142 0.163886,0.0162 0.09665,0.02213 0.189395,0.04262 0.164909,0.01599 -0.57954,-0.133374 -0.183055,-0.17336 -0.434802,-0.276346 0.406039,0.08837 0.560198,0.105705 0.78608,0.215801 -0.146351,-0.02833 -0.445654,1.3e-5 -0.18171,0.05311 0.06485,-0.01878 0.828082,0.11295 0.960371,0.20153 -0.240447,0.03008 -0.717553,0.03632 -0.219177,0.21495 0.400238,-0.0018 0.237692,-0.106006 0.841388,0.05273 l 0,0 c 0.08379,0.02281 0.182475,0.05091 0.299641,0.08536 0.109212,-0.02725 -0.08827,-0.07998 -0.288972,-0.132837 -0.143927,-0.03658 -0.289301,-0.07381 -0.326268,-0.102552 0.09081,-0.02378 0.338646,0.0117 0.358108,-0.03912 l 0,0 0,0 0,0 0,0 0,0 0,0 0,0 c 6.19e-4,-0.0016 0.001,-0.0033 0.0012,-0.0051 4.92e-4,-0.0062 -0.0019,-0.01341 -0.0076,-0.02192 -0.249557,-0.05733 -0.554208,-0.120935 -0.466755,-0.152632 0.192468,0.04115 0.348461,0.08957 0.482513,0.13837 0.313422,0.117202 0.504666,0.237433 0.760882,0.265236 -0.178003,-0.07733 -0.44593,-0.161774 -0.450871,-0.224628 0.534807,0.0988 0.513157,0.15189 0.456101,0.201666 0.789632,0.174239 0.289834,0.0023 0.184721,-0.0778 0.605761,0.10521 0.286683,0.132359 0.779281,0.229644 0.276814,0.05016 0.01511,-0.111108 0.343657,-0.04001 0.124659,0.07292 0.392096,0.158906 0.447576,0.226309 -0.348473,-0.06713 -0.488366,-0.183819 -0.479622,-0.089 0.218424,0.131492 0.680305,0.0652 0.785514,0.209906 -0.340204,-0.0164 -0.58658,-0.135756 -0.343646,0.03925 -0.365223,-0.09422 -0.608911,-0.139771 -0.795969,-0.163223 0.0507,-0.0031 0.415016,0.0043 0.02125,-0.09162 -0.312256,0.0022 -0.592004,0.01729 -1.301498,-0.133198 0.08167,0.127175 -0.491771,0.03419 -0.2165,0.215532 0.584621,0.160122 0.27189,-0.02848 0.807343,0.114127 -0.03039,0.02143 -0.294135,-0.0136 -0.01574,0.06872 0.692385,0.128827 1.542808,0.349797 2.208853,0.52095 0.03402,-0.0079 0.02038,-0.03503 0.114942,-0.01901 l 0,0 c 0.01458,0.0025 0.03181,0.006 0.05228,0.01095 0.038,-0.01226 0.0103,-0.03068 -0.04259,-0.05123 l 0,0 c -0.133424,-0.05099 -0.42116,-0.115957 -0.244273,-0.138447 0.09706,0.03317 0.182371,0.05983 0.258052,0.08116 l 0,0 c 0.371881,0.105864 0.504113,0.08175 0.661873,0.07296 0.15776,-0.0088 0.344876,-0.0055 0.788873,0.204522 -0.15795,-0.02799 -0.842654,-0.174646 -0.482659,-0.03354 0.08392,-0.01808 0.155534,0.05838 0.288858,0.116782 0.141346,-0.0064 0.398412,0.0357 0.895561,0.263842 0.161818,0.13329 -0.356772,-0.02969 -0.04658,0.10804 0.119009,0.02864 0.310256,0.08816 0.445122,0.122226 l 0,0 c 0.150341,0.03792 0.234416,0.03704 0.05268,-0.09958 -9.82e-4,-5.62e-4 -0.002,-0.0011 -0.0029,-0.0017 -0.42381,-0.238175 -0.353547,-0.127536 -0.582333,-0.210763 -0.06462,-0.07984 -0.334915,-0.203474 -0.239007,-0.246217 0.334008,0.133552 0.550546,0.220159 0.602443,0.198179 -0.280275,-0.182453 -0.416418,-0.175225 -0.884827,-0.350456 -0.213578,-0.05894 -0.05121,0.07449 -0.330193,-0.01084 -0.169858,-0.133298 -0.727939,-0.250735 -1.122366,-0.318527 l 0,0 c -0.03697,-0.0064 -0.07249,-0.01248 -0.106136,-0.01838 0.01461,-0.02966 -0.06149,-0.06783 -0.141738,-0.106474 0.08986,0.02018 0.177839,0.03937 0.264023,0.05771 l 0,0 c 0,0 1.959648,0.371745 2.749088,0.931052 1.156703,0.819507 1.727201,1.808955 1.63704,3.735863 -0.363404,2.324556 -1.93026,3.603214 -6.682041,3.746015 -0.243819,0.01204 -3.153086,0 -3.153086,0 l 0,1.051313 -1.037817,0 0,0.468705 0.42897,0 0,0.819888 -0.826963,0 0,0.327496 -0.615256,0 0,0.334118 -0.965609,0 0,0.499165 c 0,0 2.803497,0 3.119797,0 1.958685,0.033 6.769028,0.159174 9.262705,-1.003916 2.195242,-0.915291 3.43814,-2.123746 4.192371,-3.618313 l 2.6e-5,7e-6 c 0.623807,-1.236121 0.737043,-2.120488 0.785386,-3.226257 0.04405,-1.00754 -0.05199,-2.067003 -0.456343,-2.990894 C 95.051685,51.013717 94.607878,50.294555 93.655122,49.657221 93.004959,49.1171 91.905237,48.575025 91.67837,48.492173 l -0.805664,0.451661 M 83.08122,39.135727 c -0.583566,0.07035 -0.808415,0.127454 -1.31846,0.234712 0.05707,0.02019 -0.0013,0.04842 -0.0835,0.08053 -0.105735,0.04092 -0.245906,0.08623 -0.265436,0.118203 0.08384,-0.03613 0.174434,-0.06998 0.269565,-0.102512 0.451251,-0.154604 1.0016,-0.206216 1.397831,-0.330933 z m -2.39246,3.640244 c 0.06088,0.04207 0.08658,0.07299 0.05916,0.08896 0.06696,0.04491 0.140322,0.07642 0.2026,0.09514 l 0,0 c 0.155201,0.04932 0.246041,0.03597 0.120761,-0.02879 0.01638,0.03057 -0.02953,0.01488 -0.09685,-0.01904 l 0,0 C 80.85494,42.849631 80.671551,42.714872 80.68876,42.77596 z m 1.327321,-2.863906 c -0.03829,0.02719 -0.115656,0.05664 -0.192212,0.08851 -0.141219,0.05846 -0.275773,0.115348 -0.231731,0.154959 0.08504,-0.02349 0.171275,-0.05596 0.248712,-0.09042 l 0,0 c 0.18947,-0.0852 0.315187,-0.17373 0.175231,-0.153049 z m -7.590142,0.695831 c -0.0488,0.310778 -0.08277,0.673447 -0.0824,1.043132 -0.03215,0.741515 0.150249,1.593253 0.397771,2.150426 -0.269022,-0.773087 -0.367409,-1.523865 -0.354055,-2.150426 -0.0089,-0.380714 0.01059,-0.73609 0.03868,-1.043132 z M 96.114486,54.8268 c 0.04859,-0.560689 -0.0071,-0.81546 -0.02906,-0.798682 -0.02195,0.01678 -0.01522,0.297486 0.02906,0.798682 z m -1.911979,-4.975506 c 0.0716,0.07298 0.137605,0.14223 0.198513,0.207073 l 0,0 c 0.250607,0.267576 0.412351,0.460567 0.516701,0.541263 -0.155239,-0.222508 -0.331189,-0.438524 -0.472992,-0.58081 -0.12716,-0.127078 -0.222316,-0.196525 -0.242222,-0.167526 z M 80.019057,34.456238 c -0.167211,0.03836 -0.201127,0.0273 -0.334413,0.0572 0.06334,0.0201 0.290022,-0.01351 0.548284,-0.05339 0.281553,-0.0437 0.601711,-0.09655 0.78523,-0.128244 -0.625568,0.05859 -0.397601,-0.0221 -0.193023,-0.133887 -0.378168,0.05931 -0.504018,0.11644 -0.61198,0.169856 -0.05805,0.02848 -0.110964,0.05682 -0.194098,0.08846 z m 0.286917,-0.278673 c -0.132364,0.129063 0.414525,0.01172 1.012838,-0.08368 -0.100663,-0.0428 -0.160595,-0.105418 -0.683085,-0.0049 -0.03603,0.02531 -0.136191,0.05271 -0.329753,0.08856 z m 7.229921,17.265271 c -0.296377,-0.0766 -0.288435,-0.112281 -0.438371,-0.166166 -0.134312,-0.0058 -0.216182,0.01128 -0.179883,0.0763 0.37613,0.09655 0.478709,0.08624 0.618254,0.08987 z m -4.05728,-17.809171 c 0.331825,0.0035 0.699869,0.0097 0.964393,-0.02043 0.103782,-0.01853 0.39469,-0.05777 0.02337,-0.0419 l 0,0 c -0.579958,0.0089 -0.767534,-0.008 -0.987759,0.06233 z m -9.198352,4.014266 c -0.08211,0.127542 -0.184069,0.287611 -0.256981,0.419526 l 0,0 c -0.06106,0.114825 -0.101462,0.20746 -0.100111,0.237216 0.04139,-0.07176 0.08471,-0.145876 0.129321,-0.220671 0.265658,-0.428535 0.576906,-0.861762 0.648995,-1.04575 -0.07361,0.08788 -0.139788,0.169974 -0.134537,0.130508 -0.132365,0.176602 -0.313447,0.427374 -0.306194,0.466284 0.05686,-0.08611 0.132224,-0.164872 0.01951,0.01289 z m 10.43775,13.160592 c 0.384009,0.120728 0.778209,0.128035 0.78842,0.184367 0.02513,0.05152 -0.188907,0.0089 -0.179305,0.05434 1.007595,0.275847 0.25393,-0.139522 0.962539,0.15519 -0.03294,-0.07153 0.615409,0.128145 0.494298,0.02148 -0.29976,-0.06656 -0.341675,-0.109232 -0.625083,-0.173459 -0.516137,-0.05968 -1.11513,-0.259147 -1.89357,-0.443425 0.272588,0.09396 0.229465,0.282033 0.431674,0.293026 z m -8.608012,-2.884726 c -0.191483,-0.155219 -0.244348,-0.244385 -0.237513,-0.294634 -0.456777,-0.33004 -0.624315,-0.401521 -0.918421,-0.641418 0.451961,0.478292 0.892584,0.798578 1.155934,0.936052 z M 92.001775,47.52476 c 0.318696,0.141664 0.620283,0.305596 0.905158,0.480336 l 0,0 c 0.799273,0.478145 1.422255,1.081487 1.993528,1.601397 0.01543,0.01421 0.03081,0.02837 0.04615,0.04247 -0.01226,-0.01613 -0.02504,-0.03266 -0.03833,-0.04955 l 0,0 c -0.19133,-0.24219 -0.488428,-0.557321 -0.842055,-0.852863 -0.353628,-0.295543 -0.763041,-0.569693 -1.140205,-0.77535 -0.393887,-0.219402 -0.74054,-0.376931 -0.924246,-0.44644 z M 76.627623,35.330028 c 0.359543,-0.219953 0.524052,-0.329945 0.524253,-0.365521 2.01e-4,-0.03558 -0.16416,0.0069 -0.440064,0.151135 -0.01133,0.103008 -0.399022,0.309556 -0.08419,0.214386 z m 2.375394,5.302954 c -0.0222,0.207081 0.08469,-0.01621 0.185509,-0.159964 0.02091,-0.02994 0.04212,-0.05657 0.05999,-0.0748 -0.04468,-0.02165 -0.09169,-0.05092 -0.152624,0.03478 l 0,0 c -0.02881,0.04057 -0.06136,0.103272 -0.09288,0.199984 z m 5.421832,4.213347 c 0.368956,0.139734 0.803155,0.242174 1.21922,0.329725 0.430019,0.09303 0.839777,0.174816 1.140788,0.267237 -0.117965,-0.09655 0.23834,-0.0053 0.185223,-0.07635 -0.458864,-0.11603 -0.903097,-0.20106 -1.307146,-0.273675 -0.48874,-0.08469 -0.916661,-0.156638 -1.238085,-0.246937 z m -2.314116,-0.464667 c -0.06069,-0.116873 0.762883,0.04927 0.347718,-0.144127 -0.210271,-0.0105 -0.672685,-0.01517 -0.347718,0.144127 z m -0.533058,-5.204125 c -0.0045,0.02033 0.01023,0.03152 0.03911,0.03598 l 0,0 0,0 0,0 c 0.101856,0.01776 0.389684,-0.04511 0.634559,-0.06884 0.0077,-0.08115 -0.434359,0.01024 -0.644677,0.03039 -0.01018,0.0011 -0.01986,0.0019 -0.02899,0.0025 z m 5.424555,6.052121 c 0.05628,-0.06129 1.302739,0.357517 1.131804,0.20443 -0.403422,-0.06739 -1.493665,-0.388183 -1.131804,-0.20443 z m -3.597916,-0.943934 c -0.163154,-0.01664 -0.324402,-0.0326 -0.482773,-0.04762 -0.05708,-0.02077 -0.09551,-0.03729 -0.118627,-0.05018 l 0,0 c -0.03928,-0.02336 -0.02928,-0.03484 0.0098,-0.03854 0.113025,-0.0079 0.451704,0.04216 0.608531,0.06805 0.708884,0.236811 1.066039,0.205265 1.731447,0.339717 -0.58007,-0.01785 -1.511386,-0.181423 -2.091779,-0.211354 -0.504442,-0.177454 0.480583,0.04888 0.34343,-0.06007 z"
         id="path3157-2-2-9-5-9"
         style="fill:#272a2b;fill-opacity:1" />
    </g>
    <path
       d="m 305.48099,657.37793 c -4.81373,0 -9.62745,0 -14.44118,0 0,4.81372 0,9.62745 0,14.44117 4.81373,0 9.62745,0 14.44118,0 0,-4.81372 0,-9.62745 0,-14.44117 z"
       id="rect2995-9-1-83"
       style="fill:#272a2b;fill-opacity:1;fill-rule:nonzero;stroke:none" />
    <path
       d="m 370.51855,651.65863 c -4.53205,0 -9.06409,0 -13.59614,0 0,4.53205 0,9.0641 0,13.59615 4.53205,0 9.06409,0 13.59614,0 0,-4.53205 0,-9.0641 0,-13.59615 z"
       id="rect2995-9-3-3-9"
       style="fill:#272a2b;fill-opacity:1;fill-rule:nonzero;stroke:none" />
    <path
       d="m 309.89313,697.92511 c -2.56128,0 -5.12255,0 -7.68383,0 0,2.56127 0,5.12255 0,7.68382 2.56128,0 5.12255,0 7.68383,0 0,-2.56127 0,-5.12255 0,-7.68382 z"
       id="rect2995-7-9-04-4"
       style="fill:#272a2b;fill-opacity:1;fill-rule:nonzero;stroke:none" />
    <path
       d="m 326.27704,666.58363 c -2.33333,0 -4.66666,0 -7,0 0,2.33333 0,4.66666 0,7 2.33334,0 4.66667,0 7,0 0,-2.33334 0,-4.66667 0,-7 z"
       id="rect2995-7-9-1-8-1"
       style="fill:#272a2b;fill-opacity:1;fill-rule:nonzero;stroke:none" />
    <path
       d="m 342.53574,650.5611 c -1.39103,0 -2.78206,0 -4.17309,0 0,1.39102 0,2.78205 0,4.17308 1.39103,0 2.78206,0 4.17309,0 0,-1.39103 0,-2.78206 0,-4.17308 z"
       id="rect2995-7-9-04-4-7"
       style="fill:#272a2b;fill-opacity:1;fill-rule:nonzero;stroke:none" />
    <path
       d="m 333.77002,634.90295 c -3.52668,0 -7.05336,0 -10.58003,0 0,3.52668 0,7.05336 0,10.58004 3.52667,0 7.05335,0 10.58003,0 0,-3.52668 0,-7.05336 0,-10.58004 z"
       id="rect2995-7-9-1-8-1-62"
       style="fill:#272a2b;fill-opacity:1;fill-rule:nonzero;stroke:none" />
    <path
       d="m 491.97472,476.33699 c -0.0139,-0.14754 -0.0358,-0.28731 -0.24227,-0.24383 0.57151,1.48315 -2.1463,1.06228 -2.67899,1.21758 0.29508,-0.0512 0.15065,-0.27178 0,-0.48765 0.35565,-0.13356 1.25951,0.28576 1.21758,-0.24383 -0.51095,0.0777 -2.10902,0.0373 -1.21758,-0.4861 1.52664,0.76099 2.74732,-0.82932 2.92126,0.24383 m -27.26351,-0.72993 c 3.03618,0 0.2081,0.59792 -1.70368,0.24383 -0.41622,-0.0777 0.0265,-0.24848 0,-0.24383 0.68644,-0.10411 1.27349,0 1.70368,0 m 36.02728,-6.81626 c -0.32924,-0.11033 -1.36512,-0.14288 -1.94595,0 0.009,-0.77963 2.50038,-0.48144 1.94595,0 m -173.07323,23.85615 c 1.20361,0.33857 2.84827,0.23607 4.38267,0.24383 -0.8666,-0.5389 -3.69933,-1.80152 -4.38267,-0.24383 m 83.73805,-1.4614 c -1.18186,-0.32924 -2.49728,0.0342 -4.13884,-0.24227 0.67247,0.76875 3.38562,1.04674 4.13884,0.24227 m 6.57244,0.24227 c 1.10266,0.52027 3.1744,0.0714 4.38111,0.48766 l 0,-0.72993 c -0.9986,-0.3075 -2.78614,-0.0512 -4.38111,0.24227 m -27.99344,-0.48454 c -0.33701,-0.55599 -1.69436,-0.0917 -2.43516,-0.24383 0.33857,0.55288 1.69592,0.0901 2.43516,0.24383 m -5.59869,-0.97531 c -0.33856,-0.55443 -1.69591,-0.0901 -2.43515,-0.24227 0.337,0.55443 1.69591,0.0901 2.43515,0.24227 m 71.80764,0 c 0.81845,0.5622 2.67433,0.0855 3.89501,0.24227 1.32629,-0.56996 -2.46311,0.12891 -2.67743,-0.48454 -0.68644,-0.2019 -0.63053,0.34166 -1.21758,0.24227 m -9.00604,-0.24227 c -0.10399,-0.54356 -1.19895,-0.0994 -1.70368,-0.24383 0.19879,0.51095 1.28436,0.66781 1.70368,0.24383 m 27.26196,0.24227 c 0.76098,-0.85106 -2.24103,-0.48455 -2.67743,-0.24227 -3.16975,0.35254 2.57027,0.13977 2.67743,0.24227 m -11.43965,0 c 0.78273,0.36807 3.46792,0.55288 3.89501,-0.24227 -0.92872,-0.62588 -2.13232,0.28265 -3.89501,0.24227 m -9.49215,-1.21603 c 0.205,0.52493 1.2533,0.20501 1.45986,0.72993 -1.41948,0.66625 -3.61857,-0.0948 -4.86721,0.24383 2.03447,0.54667 3.5316,0.16772 5.84096,0.48454 -0.29353,-0.26712 -1.03898,-1.45208 0.24227,-1.21447 0.46436,-0.47989 -1.95216,-0.14443 -2.67588,-0.24383 m -33.10602,-2.92281 c -0.85262,0.79205 1.53284,0.40069 2.19133,0.48766 -0.11344,-1.13372 -2.01274,0.0574 -2.19133,-0.48766 m -64.99293,-0.24072 c -5.22596,-0.19723 -9.57756,0.48455 -14.36091,0.72838 2.74732,0.81379 6.03975,-0.0497 9.00605,0 1.80307,0.0311 4.02236,1.27814 5.35486,-0.72838 m 33.3483,0 c -0.63674,-0.0714 -1.04674,0.087 -0.9722,0.72838 0.63519,0.0683 1.0452,-0.0886 0.9722,-0.72838 m -17.03989,0 c -2.49572,-0.0171 -7.95774,-0.30128 -9.24987,0.9722 3.57509,-0.48765 5.62975,-0.0311 9.24987,-0.9722 m 1.70368,0 c 1.24398,0.95823 2.93368,-0.0248 4.86876,0.24072 -0.59792,1.33717 2.30626,0.22054 3.65119,0 -2.29384,-0.41776 -5.60801,-0.74856 -8.51995,-0.24072 m 10.46745,0 c -0.0683,0.39137 0.2314,0.41777 0.24227,0.72838 -0.75322,-0.31837 -0.69265,0.0667 -1.70367,0 1.66795,0.5125 3.41822,0.16617 4.62648,-0.24228 -0.92716,-0.85106 -1.85587,-0.34943 -3.16508,-0.4861 m 54.03938,0.72838 c 2.54852,1.3589 4.87497,-0.21743 8.27611,0.9722 -1.38996,0.96443 -4.42148,0.28575 -6.57244,0.48765 2.19133,1.11508 8.65506,-0.22674 10.71128,0.9753 7.86767,-0.615 18.05247,0.30129 26.77431,-0.9753 -1.05762,-0.15686 -2.75043,0.31682 -3.40581,-0.24227 -0.14909,-0.96133 1.33561,-0.28576 1.94751,-0.48766 0.0296,-0.91939 -1.42413,-0.3603 -1.46141,-1.21758 0.0762,-0.33079 0.61035,-0.20344 0.97376,-0.24072 -3.61081,-0.15219 -6.47771,1.14148 -10.70973,0.9722 0.54356,-1.32163 2.93058,-0.80136 4.38111,-1.21758 -7.5524,-1.11197 -18.77773,0.44262 -27.26351,-0.24382 -0.0265,0.4597 -0.80447,0.16928 -0.72993,0.72992 -0.76098,0.37584 -1.79841,0.47368 -2.92125,0.48766 m -83.24729,-3.16353 c 1.62913,0.61034 2.63084,-0.19103 4.37955,0 -0.52647,-0.80913 -3.84376,-0.74701 -4.37955,0 m 4.86721,0 c 6.30532,-0.17394 16.56776,0.33235 24.09687,0 1.46917,-0.0637 4.21339,0.1289 5.35642,-0.24538 -1.11974,0.36807 -2.78149,-0.49542 -4.13884,-0.48455 -7.22937,0.059 -18.3025,-0.31682 -25.31445,0.72993 m 43.57192,-0.97531 c -1.70834,0.69421 -2.75508,-0.52026 -4.86876,0.24538 0.23296,-0.0854 3.49122,0.94425 4.86876,-0.24538 m 62.55932,-1.21602 c -0.80447,-0.62898 -2.56095,-0.13357 -3.16663,0.24382 -0.087,-0.41466 0.19102,-0.45814 0.48765,-0.48765 -2.38391,-0.77652 -6.3721,0.8961 -9.00605,-0.4861 -0.17704,1.14924 -1.09954,0.51561 -2.18977,1.4583 1.66485,-0.12263 2.65102,0.4333 4.37955,0.24538 -1.54216,0.56686 -4.13418,0.0824 -6.08323,0.24227 0.44727,0.52803 1.43345,0.51406 2.43205,0.48765 -2.85293,0.58705 -7.12532,-0.56219 -10.22363,0.24228 10.79049,0.85261 17.8863,1.2797 28.72492,0.97375 -0.87435,-0.91008 -2.6619,-0.90697 -4.13883,-1.21603 -0.49231,0.75012 1.85898,0.72993 2.92125,0.72993 -1.54371,0.56686 -4.13728,0.0839 -6.08478,0.24538 0.5156,-0.61966 1.68504,-0.58549 2.67587,-0.73303 -0.74079,-0.39292 -1.1803,-1.09023 -2.4336,-0.9722 0.0388,-0.28576 0.44417,-0.205 0.72993,-0.24538 -1.10732,-0.44883 -3.12005,0.2842 -4.86877,0 2.02982,-0.40845 4.30191,-0.43485 5.84407,-0.72837 m 4.37956,-0.4861 c -0.94735,-0.61345 -2.85293,-0.1025 -3.65119,0.24227 0.31993,0.57462 1.89315,-0.10722 1.94751,0.73148 1.60894,0.17239 0.52958,-0.89766 1.70368,-0.97375 m -0.24228,0.4861 c 1.18652,0.30905 3.89036,0.86814 4.62339,-0.24383 -1.14148,-0.7936 -1.44122,0.54046 -2.67743,0 0.9225,-1.25019 -0.65228,0.7703 -1.94596,0.24383 m -11.19582,-0.4861 c -0.0559,-0.35099 -0.72682,-0.087 -0.73148,-0.48766 -0.53579,0.52648 -3.46792,-0.0714 -3.16508,0.48766 z M 357.60621,479.7459 c -1.56235,-0.46591 -3.29243,-0.76565 -5.11104,-0.97686 0.0404,0.28731 0.44417,0.20656 0.72993,0.24538 -0.40534,0.78584 -1.32163,0.27955 -1.94595,0 -0.82777,0.0667 -1.97391,-0.18792 -2.43516,0.24383 l -2.19133,0 c -0.77341,0.33545 0.85883,0.24072 1.21758,0.24382 3.94936,-0.12424 5.81611,0.34012 9.73597,0.24383 m 1.4614,-1.21758 c -0.20655,-0.045 -0.22984,0.0932 -0.24227,0.24072 -0.27178,-0.87591 -3.7863,0.84019 -4.38266,0.24538 0.57773,0.57928 3.76921,0.028 4.62493,-0.4861 m 21.17718,-0.73148 c -0.31993,0.81535 -2.73645,-0.4628 -2.67743,0.73148 1.6897,-0.205 3.33125,-0.35564 5.35641,-0.73148 -0.47057,-0.43174 -2.79857,-0.27333 -2.92281,-0.24227 -0.89765,0.1553 -2.42429,-0.31682 -2.92126,0.24227 z m 5.59869,0 0,0.73148 c 1.87606,-0.43485 3.85152,-0.6678 4.86876,0 -0.9194,-1.59652 -3.62789,-0.94269 -4.86876,-0.73148 m 4.13883,-0.97375 c -0.10722,-0.29663 -0.31216,-0.50008 -0.73148,-0.4861 -2.36216,0.33546 -2.91815,0.30905 0,0.72993 0.0404,-0.28421 0.44417,-0.20345 0.73148,-0.24383 m -17.03834,0 c 1.41171,-0.76875 -0.22984,-0.29508 -1.21913,-0.24383 2.74111,1.14614 7.01972,0.18171 9.73753,0.24383 -0.58705,-0.37583 -1.03898,-0.51095 0.24382,-0.4861 -1.59652,-0.92406 -4.16213,0.92716 -6.57244,0.24227 1.69126,-0.3836 3.18683,-0.50939 -0.4861,-0.4861 -0.41776,0.39447 -0.88833,0.7377 -1.70368,0.72993 m 81.78744,-4.38266 c 0.006,0.23761 0.29818,0.19102 0.48765,0.24538 -1.01724,0.49852 -2.65879,-1.03432 -3.40735,0.4861 1.86674,-0.44106 4.96815,0.89765 5.35486,-0.4861 1.18962,0.46125 1.2036,0.0217 2.9197,0.4861 -0.40534,-0.483 0.0217,-0.3075 0,-0.97376 -1.60118,-0.19412 -3.30486,-0.11803 -5.35486,0.24228 m 23.12468,-0.24228 c 0.36341,1.07315 1.43345,-0.005 2.4336,0.24228 -0.20811,-0.52027 -1.92887,-0.47057 -2.4336,-0.24228 m -4.13729,-2.9197 c -0.62276,0.39292 -1.93663,-0.0435 -2.92125,0.4861 1.09955,0.11033 2.46622,0.62898 2.92125,-0.4861 m -8.03229,-0.24538 c -2.10436,-1.26728 -6.94051,-0.19102 -9.25142,0 2.75819,0.41311 5.8099,0.21432 9.25142,0 m -2.92281,-2.67743 c -0.1025,-0.54356 -1.19894,-0.0978 -1.70368,-0.24227 0.0559,0.34943 0.72838,0.0855 0.72993,0.4861 -3.8391,0.52182 -9.50457,-0.16928 -14.36091,0.48765 4.53176,0.0668 12.15715,0.72371 16.79607,0 -0.10561,-0.4597 -3.10141,-0.0854 -1.46141,-0.73148 m -0.97375,-0.9722 c -1.1508,-0.0963 -1.67417,0.43485 -2.9197,0.24383 0.12734,1.21136 2.31246,0.23606 2.9197,-0.24383 M 350.7915,462.70601 c 0.72992,-0.23761 6.00403,0.71595 7.06009,-0.73148 -3.30175,-0.20655 -5.01475,-0.0342 -7.54775,0.24383 0.15065,0.21742 0.29508,0.4364 0,0.48765 -0.0435,0.20655 0.0963,0.2283 0.24383,0.24227 0.43485,0.07 0.49852,-0.22985 0.24383,-0.24227 m 9.00759,-0.48765 c 0.64917,0.44727 2.23793,0.0636 3.16353,-0.4861 -1.10576,0.51095 -2.37769,-0.48455 -3.16353,0.4861 m -2.19288,-1.21603 c -0.10561,-0.29973 -0.31061,-0.50163 -0.72993,-0.48765 -2.2783,0.24693 -2.70228,0.60258 0.72993,0.48765 m 110.75618,0 c 0.0621,0.43174 2.12921,0.31371 3.16508,0 -0.34322,-1.1011 -2.50349,-0.16928 -3.16508,0 m -116.35487,0.4861 c 1.25951,0.68023 1.92266,-1.31852 3.65274,-0.97375 -0.52493,-0.85262 -2.92747,0.42242 -3.65274,0.97375 m 128.04145,-1.70523 c -0.79826,0.0155 -0.93337,0.69265 -1.94906,0.48765 0.0342,0.85883 1.09179,0.69421 1.70368,0.97375 -1.00481,-0.8961 0.34788,-0.3075 0.24538,-1.4614 m -27.26351,0 c -1.23777,0.91163 -3.64808,0.29508 -5.84252,0.24538 1.51266,-1.13837 -1.16943,-1.01258 -2.43515,-0.72993 0.2081,0.60258 1.69436,-0.0729 1.9475,0.48455 -0.59171,0.4628 -1.9444,0.16773 -2.67743,0.48765 -0.18015,0.82932 0.8961,0.40224 0.97375,0.97375 6.51964,0.14754 11.1073,1.11198 18.49974,0 -0.16928,-0.19723 -0.37894,-0.66625 0,-0.72992 -0.66004,-0.85572 -3.71175,-0.42864 -4.3811,-0.4861 -0.0186,-1.23622 1.90867,-0.52648 2.67587,-0.97375 1.78599,-0.44417 -2.60599,-0.22675 -3.4058,-0.24538 -1.27815,-0.028 -2.3808,-0.1258 -3.16508,-0.24072 -0.52027,-0.11642 -0.46436,0.34632 -0.4861,0.72992 l -5.35487,0 c -0.78894,0.27955 0.65073,0.27644 0.97376,0.24228 0.68023,0.29197 1.67883,0.27022 2.67743,0.24227 m 16.55068,-1.45985 c -0.98462,-0.72993 -2.26122,0.32769 -3.64963,0 -1.02189,0.37428 3.07346,0.37428 3.64963,0 m -84.95252,-0.24228 c -0.41621,0.55754 -1.85898,0.0885 -2.67743,0.24228 1.13216,0.80602 4.68706,-0.15531 6.32862,0.24538 0.99239,-2.35751 -7.26354,-0.21122 -3.65119,-0.48766 m 11.68503,-0.9753 c 0.0574,0.42864 0.41932,0.55599 0.97375,0.48765 -0.132,0.45193 -0.88057,0.22053 -1.21757,0.24383 -2.08262,0.14754 -0.64607,0.2547 1.45985,0.24382 0.0388,-0.28575 0.44417,-0.205 0.73148,-0.24382 -0.61035,-0.28421 -0.93804,-0.84951 -1.94751,-0.73148 m -31.89,1.46296 c 0.34322,-0.39137 0.83864,-0.62432 1.4614,-0.73148 -37.18553,0.53772 -32.67716,0.5492 3.16354,1.4614 -1.29058,0.44728 -2.34509,0.006 -4.13729,0.24228 0.14909,0.21897 0.29508,0.43485 0,0.48765 1.72076,1.06693 3.57975,0.4861 6.08479,0.72837 -0.74235,0.63675 -3.0222,-0.26246 -2.9197,1.21758 3.54713,-0.0186 5.68876,0.0839 9.00604,0.24383 0.7439,-0.37584 -1.05606,-0.21432 -1.4614,-0.24383 -1.79686,-0.13511 -2.9135,-0.57617 -3.89346,-0.9722 0.50629,-0.30595 1.02655,-0.59636 1.4614,-0.97375 -0.18325,-0.54978 -1.36667,-0.0963 -1.9475,-0.24538 0.20655,-0.76565 2.42739,0.48144 1.9475,-0.97375 l 7.05699,0 c -0.1289,-0.19258 -0.25314,-0.39447 -0.24227,-0.72838 1.17875,0.0419 1.95061,-0.32303 2.92125,-0.48765 -1.99254,-0.22829 -4.29724,0.34788 -6.81626,0 0.11952,-0.77341 2.19288,0.41 1.94906,-0.72992 -2.38391,-0.0466 -5.17471,0.0203 -5.84407,0.97375 2.25966,0.79205 3.57819,-0.14133 5.84407,0.4861 -2.63084,0.65693 -4.79422,-0.0388 -7.30392,0 0.20655,-0.36186 0.61189,-0.52182 1.21602,-0.4861 -2.49417,-0.70663 -5.64062,0.0358 -7.54619,0.73148 m 56.71681,-2.92281 c 3.36853,0.73148 5.32535,-0.0466 8.76377,0 -2.36217,-0.34322 -5.61422,-0.32148 -8.76377,0 m -70.83389,-0.97376 c -0.59481,-0.49541 -1.51266,0.0112 -1.94751,0 0.75789,0.54046 1.2005,-0.0201 1.94751,0 m 5.11259,0 c -0.81845,-0.56375 -2.67433,-0.0854 -3.89501,-0.24227 0.81534,0.5622 2.67277,0.0824 3.89501,0.24227 m 10.22207,0 c -1.46296,-0.5653 -3.97422,-0.0822 -5.84096,-0.24227 1.4614,0.56531 3.97266,0.0824 5.84096,0.24227 m 38.21706,-0.24227 c 0.45038,-0.54511 -1.29523,0.33235 -1.94595,0.24227 0.36807,0.36186 1.06693,0.39292 1.70368,0.48766 -0.0217,-0.34633 -0.0419,-0.6911 0.24227,-0.72993 m -18.01209,-0.4861 c -0.81845,-0.56375 -2.67432,-0.087 -3.89501,-0.24693 0.8169,0.5653 2.67277,0.0885 3.89501,0.24693 m -11.92885,1.45985 c -0.0112,-0.41776 0.18015,-0.63053 0.48765,-0.73148 -0.4597,-0.615 -0.85262,0.22364 -1.45985,-0.24227 -0.2811,0.76409 0.38204,0.59015 0.48454,0.97375 -0.41776,0.483 -2.41341,0.483 -1.94595,-0.73148 -0.31992,0.24849 -0.89765,0.23917 -1.21602,0.48766 0.46435,-0.90232 -0.15375,-0.60724 -0.72993,-0.97531 -2.10125,0.6414 -3.39804,1.49868 -6.08634,1.94751 -0.72371,-0.16928 -0.98618,-0.79982 -1.4614,-1.21603 -0.4861,0.27955 -3.67759,0.68489 -1.45986,0.72993 -4.33917,1.18341 -6.90789,-0.56375 -10.22362,0 0.0482,0.32769 1.01102,0.45348 0,0.4861 0.10411,0.54666 1.19894,0.0994 1.70368,0.24538 -0.0745,-0.3308 -0.61034,-0.2019 -0.97375,-0.24538 0.56219,-0.70042 1.77511,-0.005 1.9475,0.48765 1.62137,-0.44727 2.7147,0.45193 4.13728,0.4861 1.55459,0.0404 2.18512,-0.82156 3.40891,-0.97375 3.38717,-0.41622 7.64248,0.52958 10.71128,0.24538 0.27333,0.21897 -0.0172,0.54356 0.4861,0.97375 1.35735,-1.23932 4.29414,-0.89921 6.57244,-1.21913 0.17394,-0.66004 -1.14925,0.17394 -0.97531,-0.4861 l 0.48766,0 c -1.06694,-0.7936 -2.97562,0.32769 -3.89501,-0.24228 m 11.68503,-0.48765 c -0.31372,0.68178 -0.50319,-0.7672 -1.21914,-0.4861 0.66626,2.27054 -3.24273,-0.29973 -4.37955,0.24227 0.0605,0.26402 0.48454,0.16618 0.4861,0.48766 -0.41466,0.0777 -2.44914,0.71129 -2.43205,-0.72993 l -1.46296,0 c 1.48936,1.6866 3.87792,1.31542 6.57399,1.4583 -0.0762,0.3308 -0.60879,0.20189 -0.9753,0.24383 -0.41001,0.63053 1.33095,-0.10872 1.9475,0 -0.78273,-1.38842 4.23823,0.58083 5.35486,-0.72838 -0.14754,-0.22829 -0.5653,-0.8992 0.24538,-0.73148 0.0497,-0.41621 -0.41621,-0.62897 0,-0.72837 -0.2842,-0.65072 -1.29368,-0.0234 -0.9753,0.72837 -0.1786,-0.17394 -1.18963,-0.60723 -0.97376,0.24383 -0.22674,-0.1786 -0.36651,-0.44106 -0.4861,-0.73148 -0.80136,0.0112 -1.21136,0.41156 -2.19133,0.24538 0.10872,0.21587 0.21432,0.43485 0.48766,0.4861 m 46.49318,-0.9722 c -1.13993,-0.5653 -3.3235,-0.0855 -4.86876,-0.24693 1.13992,0.56686 3.32504,0.087 4.86876,0.24693 m -35.29581,0.9722 c -0.29197,-0.31992 -0.0963,-0.3836 0,-0.73148 1.37754,-0.23917 1.45675,0.81534 2.91971,0.48765 -0.47679,-0.45659 -0.13978,-1.17254 0.73147,-0.9753 -1.79841,-0.41311 -4.29258,0.57617 -6.57244,0.48765 0.13822,0.2283 0.67713,0.36962 0.24383,0.48765 0.0544,0.35099 0.72527,0.0855 0.72993,0.48766 0.0512,-0.78739 0.59791,0.25469 1.9475,-0.24383 m 27.01969,-1.4614 c -0.009,-0.31838 -2.26743,-0.42243 -2.67898,0.24227 -1.33406,-0.41777 -3.19149,0.24848 -5.11104,0 -1.31853,0.32458 1.37909,0.24848 1.9475,0.24693 0.3805,0.0854 -0.21276,0.42553 0.24383,0.4861 1.95838,-0.23451 3.74592,-0.63674 5.59869,-0.9753 m -5.84252,-0.72993 c 1.74562,0.96443 2.67433,0.0979 5.11104,0.24538 -0.2811,-0.5358 -3.62323,-0.10561 -5.11104,-0.24538 m 9.00605,0.48765 c 1.71921,-0.15996 2.77993,0.059 4.86876,0 -0.83553,-0.51405 -4.13262,-0.98928 -4.86876,0 m 8.51994,-0.24227 c 1.88383,0.81534 2.56251,0.0824 4.62494,0 -0.79826,-0.59171 -3.68846,0.0342 -4.62494,0 m -59.63806,-0.97531 c 1.60584,0.83243 5.20733,-0.48299 1.70368,-0.24227 -0.62898,0.0419 -1.23932,0.43951 -1.70368,0.24227 m 29.69712,-1.21758 c 0.84796,0.75167 1.9941,-0.26556 3.16508,0 0.22985,-0.52492 -2.51591,-0.17704 -3.16508,0 m -56.96063,40.89605 c 0.43329,-0.18015 0.0357,-0.44261 0,-0.72992 2.54231,-0.014 5.94501,0.73458 8.76377,-0.48766 1.38065,1.13838 5.21198,0.13667 7.79002,0.48766 -1.01879,-0.54357 -0.0636,-0.91164 0.97375,-0.73304 -3.94315,-0.74545 -8.55877,0.23607 -11.19582,-0.24227 -0.88368,0.36807 -0.57928,1.02034 -2.43516,0.73148 -0.0978,-0.58394 1.10731,0.13511 0.72993,-0.73148 -7.73877,0.22364 -17.46542,-0.25314 -25.31757,0 -0.4131,-0.0885 -0.45814,0.18947 -0.48454,0.48765 6.12827,3.1216 14.69947,-0.9986 21.17562,1.21758 m 109.0525,-36.51338 c 0.93648,-1.9708 4.8905,-0.55133 6.08634,-1.70523 -0.55754,0.24072 -1.15701,0.22208 -1.94906,-0.24228 0.3836,-0.0234 0.84485,0.0327 0.73303,-0.48765 -4.09224,0.95201 -9.46108,-0.65383 -12.41495,0.48765 0.28576,0.0373 0.6911,-0.0419 0.72993,0.24228 -1.05451,-0.25004 -2.72713,0.36341 -4.13884,0 0.29818,-0.0265 0.57773,-0.0731 0.48765,-0.48455 -0.50473,0.14288 -1.59962,-0.30129 -1.70368,0.24227 0.18947,0.0543 0.47989,0.006 0.4861,0.24228 -2.43515,0.83553 -7.94221,-0.66004 -10.22362,0.9753 1.90091,0.69887 3.92452,-0.93027 5.59869,0.72993 -1.65088,0.21432 -3.66361,0.0698 -5.11259,0.4861 0.95667,0.53269 2.76285,-0.4861 3.65118,0.4861 -1.71299,0.80292 -4.85478,0.17704 -6.81471,0.73148 4.08914,0.0342 9.40517,1.94905 12.90105,0.24227 -1.34648,-0.19568 -2.9197,-0.16307 -4.13883,-0.4861 l -1.94751,0 c -2.08572,-0.62432 5.19956,0.26557 5.11259,-0.73148 2.23482,0.72216 5.30672,0.48921 8.76377,0.48921 1.68194,0 6.55847,-0.0404 3.40736,0.24227 -0.79515,0.42242 -2.19754,0.23761 -2.67743,0.97375 -0.55133,-0.39447 -3.81581,-1.29523 -2.4336,0 -0.6616,0.15065 -1.93198,-0.31061 -2.19134,0.24383 0.97531,-0.0497 1.08713,0.0621 0.48766,0.4861 1.14924,0.11952 4.17145,0.57462 4.13728,0 -0.009,-0.14599 -3.33747,0.31371 -1.21603,-0.24228 1.41948,-0.37428 1.78133,-0.15996 3.64963,0 0.3836,-0.18636 0.36341,-0.77341 0.97376,-0.72992 4.03167,-0.3339 7.06941,-0.17705 10.70972,0 0.0963,-0.37739 0.29352,-0.0373 0,0.24227 -0.97841,0.15686 -2.58736,-0.31526 -3.16353,0.24383 1.04053,-0.14133 4.52709,0.83553 4.38111,-1.21758 -1.98789,0.25004 -3.05637,-0.23762 -0.4861,-0.24227 -0.014,-0.31216 -0.31371,-0.34012 -0.24383,-0.73148 3.24895,0.0948 6.35036,-0.39137 9.24987,0.24227 -0.32769,0.48455 -1.69902,-0.0762 -1.70368,0.73148 1.36823,-0.16928 2.13698,0.0731 3.16354,0.24383 -0.28576,0.0388 -0.68955,-0.0404 -0.72993,0.24227 2.17114,-0.059 3.54713,0.67402 5.84251,0.48765 0.53891,0.34943 -0.3075,0.59481 0.24383,0.72993 2.71004,-0.0714 2.00031,-0.56841 3.40736,-0.24228 -0.22985,-0.0543 -0.30906,0.42243 0,0.48766 0.5125,0.10411 2.21307,-0.29508 3.40891,0.4861 -1.9708,0.15219 -4.19475,-0.47678 -5.59869,0.24382 1.92266,-0.205 0.27644,0.72372 1.45985,0.72993 -0.52182,0.28886 -1.36201,0.26091 -1.70368,0.72837 -0.21432,-0.78117 0.63053,-0.50473 0.72993,-0.97375 -1.23932,-0.18326 -1.93198,0.18015 -1.94751,1.21913 7.4437,0.24538 11.11352,0.92095 16.06614,1.21603 -1.01568,1.42102 -5.31603,-0.44572 -6.33017,0.97375 0.85728,-0.20189 2.75509,-0.20345 3.40891,0.24383 -1.40083,-0.50474 -3.23375,0.40007 -3.23375,0.40007 0,0 -2.33543,-0.6967 -2.36493,0.32985 1.05295,1.23622 4.12175,-0.59326 4.86876,1.21758 -0.76409,-0.71284 -2.43205,-0.25936 -3.40736,-0.48765 -0.0963,0.41932 0.36186,0.62587 0,0.73148 -2.35595,0.28265 -3.83289,-0.0404 -6.33017,0.24382 2.7116,-0.0917 -1.31076,0.78894 -2.4336,0.72838 -0.059,-10e-4 -0.6383,-0.7144 -0.73148,-0.72838 -0.93337,-0.15064 -1.68349,1.28902 -2.19133,0.48455 0.3836,-0.0232 0.84485,0.0327 0.73148,-0.48455 -0.83864,0.56841 -1.56546,-0.20034 -2.43516,0.72838 5.72138,0.70507 11.20825,0.14443 15.57849,0.97375 -0.98463,0.37739 -4.02236,-0.23451 -5.59714,0.73148 1.6136,0.53579 3.40891,-0.41777 3.89501,0.97375 -4.1963,0.8697 -10.32612,-0.50163 -14.11708,0.24383 1.67417,0.0358 2.78149,0.72682 3.64963,0.9722 -2.35906,0.21121 -4.07982,-0.3836 -5.59869,0.48765 0.40535,0.0296 2.20531,-0.13356 1.45986,0.24227 -0.35254,0.13356 -1.25796,-0.28265 -1.21448,0.24383 1.57167,0.0466 4.30035,-1.40394 3.89191,0 1.05606,-0.0822 2.55163,0.27799 2.92281,-0.4861 -0.40535,-0.028 -2.20531,0.13356 -1.46141,-0.24383 3.0424,-0.11952 8.64264,0.46902 11.4412,0.72993 -4.61561,0.33235 -8.62865,0.38515 -13.63253,0.9722 2.70228,0.18791 4.71812,-0.31061 7.30392,-0.24228 0.73614,0.33701 -0.0621,0.6911 0.72993,0.97376 -0.0543,-0.3044 -0.3805,-0.49697 0.24227,-0.4861 0.98618,-0.33701 0.7703,0.52803 1.4614,0.4861 l 1.21603,0 c 0.57928,-0.20034 1.1244,0.34477 0.24383,0.24382 -5.35952,0.002 -8.3662,-0.12424 -12.41496,0.24228 0.88057,-0.0139 1.94906,-0.0745 0.97531,0.48765 0.63519,0.076 2.22084,-0.26868 1.45985,0.48765 -3.52694,0.23296 -10.93647,1.07004 -13.87481,-0.48765 0.60724,0.17083 1.00016,0.24072 1.45985,-0.24383 -0.8728,-1.25951 -3.34368,0.47057 -4.62338,-0.4861 1.08091,-0.39757 3.16043,-1.16943 4.37956,-0.24382 0.94424,-1.28126 2.51125,-1.48004 3.65273,-1.45986 0,0.97531 -1.62913,0.32148 -1.94905,0.97376 0.64916,10e-4 1.39151,-0.0917 1.70523,0.24382 0.10101,-1.92886 3.25671,-0.79981 4.38111,-1.70523 -1.24864,-0.26401 -2.81099,0.42087 -3.40891,0 0.22829,-0.25935 0.8992,-0.0762 0.73148,-0.72992 -2.05933,-0.48921 -6.32706,0.0839 -9.0076,-0.48766 0.36651,-0.0404 0.89921,0.0886 0.9753,-0.24227 -4.34694,-0.42087 -9.90059,-0.009 -13.3887,0.24227 0.3836,0.0249 0.84485,-0.0327 0.73148,0.48766 -2.30781,-0.40224 -5.10327,-0.24383 -7.30392,-0.24383 0.94735,0.9194 3.64341,0.0916 4.86876,0.73148 -0.28731,0.0373 -0.68955,-0.0419 -0.72993,0.24227 2.66656,-0.57617 4.31899,0.31216 7.05854,0.24383 -0.27333,-0.0512 -0.37894,-0.27023 -0.4861,-0.4861 2.89175,1.08402 6.03975,0.0217 8.51839,1.21602 -3.08743,0.3836 -3.59372,-0.25314 -6.08323,0.48766 1.43345,-0.16152 0.85728,0.27644 1.4583,0.72992 -3.26603,0.72527 -8.18604,-0.90076 -9.73597,0.4861 0.21276,-0.18947 0.76875,0.23606 0.73148,0.24383 -3.0424,0.62121 -4.91846,0.0249 -8.03385,0.73148 1.4583,0.205 3.54247,0.52182 4.13728,0.24382 -0.32147,1.38065 -3.81425,-0.40844 -4.13728,0.9722 3.51607,-0.16772 6.76347,-0.13511 9.9798,0.24383 1.1275,0.13201 2.31713,0.86349 3.40891,0.97375 -0.0112,-0.001 -0.19258,-0.50007 -0.24383,-0.48765 2.15561,-0.59947 6.2168,0.30284 8.76222,0.73148 -0.59636,-0.60258 2.42273,0.19723 1.94751,0.24227 -1.61671,0.25936 -2.72558,-0.005 -4.38111,0.48765 2.83584,0.014 4.62338,0.18016 6.81626,0 -3.29398,0.82467 -8.70786,0.77963 -11.92885,0.24383 0.42242,-0.47212 1.99565,0.20655 1.9475,-0.73148 -2.87466,-0.24693 -4.58145,-0.23916 -7.05854,0.24538 1.26417,0.49076 1.90868,0.1258 2.92126,0.72682 -1.83879,0.19102 -3.97732,0.0839 -5.59869,0.48921 9.22658,0.32458 15.67322,0.71905 24.82836,-0.48921 -1.71921,0.0497 -4.18077,-0.014 -4.86721,-0.24072 0.1522,-0.41466 0.73458,-0.40223 0.97375,-0.73148 -0.50163,-0.14754 -1.69281,0.39137 -1.4614,-0.4861 1.13216,-0.68799 3.38872,0.07 4.62338,-0.97375 -0.43019,-0.0543 -1.21603,0.24538 -0.97375,-0.4861 3.20857,-0.11641 -0.75012,-0.14754 -0.4861,-0.4861 5.15296,-0.63364 8.41589,0.36807 12.17268,0.9722 1.00015,0.16152 2.40099,-0.73769 2.67743,0.72993 -0.29818,0.0265 -0.57618,0.0729 -0.48765,0.48765 -3.33126,-0.46281 -7.77449,-0.2547 -9.97825,0.48765 0.7408,-0.17704 0.88523,0.24693 1.4583,0.24227 1.77046,-0.82776 4.36558,-0.81378 6.08634,-0.48765 1.52819,0.009 -10e-4,0.41156 -0.72992,0.24538 l -2.67899,0 c 0.0544,0.30595 0.3805,0.49697 -0.24382,0.4861 -1.13838,0.15686 -2.9135,-0.31837 -3.64963,0.24072 2.22083,0.27644 7.3707,-0.045 9.00604,1.21913 -2.99735,0.3075 -5.52259,-0.48299 -7.06009,0.72993 0.63674,-0.50474 -0.33546,1.26883 -0.48455,0.73148 0.64606,0.30284 2.68986,0.205 4.37956,0.24072 1.435,0.0327 4.28948,0.0155 1.9475,0.24538 -1.26417,0.55443 -3.97577,-0.65694 -5.11103,0.48765 1.16477,-0.0296 2.2022,0.0668 2.9197,0.48455 -3.00201,0.16151 -6.65164,-0.32303 -9.24987,0.24538 4.15903,-0.0994 7.26509,0.84951 11.68503,0.48765 0.37739,0.86504 -0.82622,0.14598 -0.72993,0.72837 1.67573,-0.20189 3.45084,0.17084 4.13884,-0.48765 -0.79981,-0.10561 -3.31728,0.24693 -2.92281,-0.24072 2.39322,0.005 3.39804,-0.10101 5.59869,0 0.31216,1.23 2.69296,0.38981 3.40891,1.21603 -1.07315,0.36341 -1.67728,-0.2516 -2.43361,0.24227 0.36341,0.0419 0.89766,-0.087 0.97375,0.24382 -2.52057,-0.84485 -8.79638,2.1494 -10.71127,0.24538 0.0683,0.0636 0.57773,-0.1056 0.4861,-0.24538 -1.50955,0.43641 -3.8391,0.0574 -4.86876,0.97376 0.59636,0.70352 1.90402,0.69265 2.4336,1.45985 -1.04675,-0.25936 -2.13698,0.0932 -3.16353,0.48921 1.4583,-0.006 3.63255,-0.32459 4.86876,0.48609 -1.57012,0.24849 -2.47554,-0.0978 -3.40891,0.97376 1.03898,0.62121 2.75819,-0.52959 3.89501,0.24227 0.10412,-0.54667 1.29213,-0.007 1.46141,-0.4861 0.65693,0.56065 2.34818,0.0854 3.40735,0.24383 1.06228,-0.006 0.0419,0.41932 -0.4861,0.24227 l -1.9475,0 c -13.49121,1.22224 -24.79574,0.31993 -38.94544,0.73148 -0.002,0.3572 -0.67867,1.22068 -0.9753,0.4861 0.28886,-0.11952 0.55132,-0.25936 0.72992,-0.4861 -3.26913,0.25625 -5.69963,-0.58394 -7.79002,0.24383 2.27209,0.0683 4.89983,-0.44262 5.84252,0.48454 -0.84796,0.61345 -3.08743,-0.16617 -3.40736,0.97531 2.05311,0.0139 4.54884,-0.0932 5.60024,0.24382 1.21913,0.15686 3.07656,-0.31992 3.89191,0.24383 l -0.72838,0 -0.72992,0 c -12.60753,0.30595 -25.53654,-0.59326 -35.78346,-0.73148 -3.11849,-0.0404 -7.10824,0.47057 -8.27612,0.24383 -2.02516,-0.39292 -4.25687,0.80602 -5.11259,-0.72993 -1.20515,1.64311 -3.82512,0.38205 -5.84251,1.21758 0.18481,-1.03432 2.26898,-0.16617 2.67743,-0.9753 -2.9694,0.13666 -4.76782,-0.98773 -6.81472,0 -0.40223,-10e-4 -0.13511,-0.67402 -0.48765,-0.72993 -1.14303,0.63364 -3.07967,-0.39447 -4.13728,-0.4861 -0.40224,-0.0358 -1.26883,0.48144 -1.46141,0.4861 -4.19319,0.10871 -9.3943,0.087 -15.33621,0.24227 1.80307,-1.31542 4.63425,-0.50163 7.30392,-1.45985 -3.79096,0.43019 -9.42536,-0.98618 -11.68347,0.97531 2.01894,-0.17394 5.70584,0.25469 1.70367,0.24227 -0.002,0.40224 -0.67557,0.13511 -0.73148,0.48765 0.18947,0.0544 0.47989,0.006 0.48766,0.24228 -0.42864,-0.13978 -1.42879,0.29507 -1.45985,-0.24228 0.28575,-0.0388 0.6911,0.0404 0.72992,-0.24538 -1.96459,0.014 -5.38437,1.06538 -6.57399,0.24538 0.35564,-0.13356 1.25796,0.28421 1.21913,-0.24538 -1.34027,-0.18481 -5.01475,1.32163 -4.38111,0 -0.83087,0.0373 -2.64948,-0.18636 -1.45985,0.48766 -7.03991,0.1102 -15.65924,-0.48145 -20.93645,1.70367 0.93026,-0.25625 2.68674,0.37273 3.895,0 -1.37443,2.03293 -5.71516,0.3541 -7.54619,1.45986 0.28576,0.0388 0.68955,-0.0404 0.73148,0.24382 l -1.94906,0 c -0.61034,-1.09333 -1.67572,-1.73163 -1.9475,-3.16353 0.22053,-0.51095 1.37443,-0.087 1.4614,-0.73148 -1.73163,-0.9225 -2.1494,-2.02205 -3.89501,-3.16197 1.45364,-0.69421 -0.13045,-2.91039 0.97531,-3.89657 -0.43485,-0.13356 -1.01258,-0.12424 -1.21913,-0.48765 0.50629,-1.14614 0.66625,-3.09364 1.4614,-4.13573 -0.79049,-0.14133 -1.13216,0.16307 -1.70368,0.24227 -0.97685,-0.91007 -1.78288,-3.2272 -0.4861,-4.38111 0.19258,1.72387 -0.56841,2.9135 0.4861,3.65119 0.0201,-1.56857 2.0702,0.32769 2.43361,-0.97376 -0.0497,-0.32613 -1.01103,-0.45348 0,-0.48765 0.45504,-0.0311 0.41466,1.43811 1.45985,0.48765 -1.2797,-1.15235 -2.49107,-2.37769 -3.16353,-4.13883 0.13201,-0.84019 1.03432,-0.91318 1.21603,-1.70523 -0.32459,-0.56531 -1.40861,-0.37428 -1.94596,-0.72838 0.66781,-1.10265 -0.5389,-1.27348 -0.4861,-2.4336 0.28266,-0.44727 1.29058,-0.16928 0.9722,-1.21758 -0.74235,0.17549 -0.88678,-0.25004 -1.45985,-0.24227 0.1289,-1.57944 -0.2842,-1.45209 -0.9722,-2.43516 30.68574,-1.87157 13.44283,7.54026 26.968,-6.79529 3.80649,1.70213 10.11069,-7.53921 14.41104,-6.83569 0.18171,0.028 -0.0606,0.52337 0.48766,0.4861 3.07811,-0.20189 6.97001,-2.85603 9.24831,-0.73148 4.54574,0.26091 8.75601,-0.42708 12.17269,0 -0.88213,0.17394 -2.0174,0.0916 -2.67744,0.48765 1.83259,0.0729 4.34229,0.50629 4.86721,-0.97375 -1.3092,-0.0901 -2.72402,-0.23451 -3.89501,-0.24383 -3.79095,-0.0279 -8.13634,1.00792 -10.22362,0 5.84252,-0.16462 13.52848,-0.57151 19.96115,-0.24227 1.53905,-1.00636 5.41387,-0.16307 8.76377,-0.48765 1.08557,-0.10561 6.19661,-1.37288 4.62494,0 6.80694,-0.64296 13.16507,0.56375 18.01364,-0.73148 -0.35409,-0.13046 -1.25951,0.28576 -1.21758,-0.24227 1.40549,-0.57152 4.68706,-0.67557 5.35641,0 -1.49402,-0.0296 -2.91038,0.0124 -3.89656,0.48765 4.35937,0.24227 9.48127,0.54201 12.90106,0.24383 1.8947,0.71905 8.99051,-0.2811 11.92885,0.4861 -0.15064,0.33856 -0.93803,0.0358 -0.97531,0.48609 1.03433,0.42554 2.73956,0.18171 4.14039,0.24383 0.52493,-0.17549 1.54683,0.24849 0.4861,0.24227 l -0.72992,0 c -4.81596,1.79997 -9.19707,0.21277 -14.85011,1.21914 8.85229,-0.23762 17.28371,0.73303 25.80366,-0.72993 -0.3836,-0.0248 -0.84485,0.0327 -0.73148,-0.48921 l 1.4614,0 c -0.0776,-0.32769 -0.34632,-0.46435 -0.24382,-0.97219 2.76595,-0.63209 6.7557,-1.54838 9.73597,-0.4861 -0.24538,0.001 -0.3044,0.42708 0,0.4861 5.02872,-1.52198 11.84809,0.0327 16.79606,0.48609 -3.07811,0.62588 -5.91085,0.67557 -8.51994,0.72993 0.36341,0.0435 0.90076,-0.0855 0.97375,0.24538 -2.46311,-0.61034 -6.46684,-0.0435 -9.49215,0.24227 0.72372,0.0994 3.14024,-0.23606 2.67743,0.24383 -2.9197,0.61345 -5.38436,0.3339 -7.79001,1.21603 0.48299,0.56219 -0.0606,0.27178 -0.24383,0.72992 0.64606,0.28731 1.43345,-0.46436 1.4614,0 -3.96334,1.68194 -7.77914,-0.0373 -12.41495,0.97531 M 374.16,448.34355 c 0.39447,0.48921 -2.12455,0.13667 -2.92126,0.24227 -0.25935,0.28266 -1.12129,0.0901 -1.4614,-0.24227 1.31076,0.20034 2.56716,-0.10399 4.38266,0 m 90.55121,45.52098 c 0.74079,0.15065 2.09659,-0.31371 2.43515,0.24228 -0.74079,-0.15375 -2.09659,0.31216 -2.43515,-0.24228 m -29.4533,0 -2.19133,0 c 0.0667,-1.06227 1.8419,-0.21742 2.19133,0 m -54.2832,-0.73148 c -2.65879,-0.35098 -5.81456,0.9986 -7.79002,-0.24227 3.09365,0.0731 5.45892,-0.41155 7.79002,0.24227 m 8.27612,-0.4861 c 0.82156,0.15375 2.26122,-0.31526 2.67899,0.24383 -0.82001,-0.15375 -2.26122,0.31216 -2.67899,-0.24383 m 3.40891,0 c 0.90387,0.17239 1.04519,-0.41776 1.94751,-0.24382 0.24693,0.83398 -1.82948,0.57773 -1.94751,0.24382 m 84.46487,0 c -2.47709,0.4333 -8.64574,0.3836 -11.92575,0 3.07345,-0.0574 8.06335,0.0388 11.92575,0 m 0.24538,0 c 1.65864,-0.11803 2.80633,-0.0388 3.89501,-0.24382 -0.65383,0.6911 -3.18217,0.72526 -3.89501,0.24382 m 2.4336,-0.48765 c 0.52648,-0.85727 3.10296,-0.9489 4.13884,-0.4861 -1.80773,0.30284 -2.75819,0.46591 -4.13884,0.4861 m -28.47954,-0.97375 c 1.54527,0.15996 3.72884,-0.32148 4.86721,0.24227 -1.54216,-0.15841 -3.72728,0.32459 -4.86721,-0.24227 m 38.21707,-2.43361 c -2.23327,-0.21121 -4.97593,1.07626 -5.35642,-0.48609 1.37444,0.65227 3.66516,-0.47368 5.35642,0.48609 m 0.24227,-0.9753 c -0.89921,-0.15375 -2.42429,0.31527 -2.92126,-0.24227 0.54512,-0.3044 2.74577,-0.58705 2.92126,0.24227 m -34.80815,-0.9722 c 1.06072,0.15686 2.75042,-0.31837 3.40735,0.24227 -0.66314,0.29663 -3.11849,0.61345 -3.40735,-0.24227 m 16.30996,0.9722 c -1.73163,0.0311 -4.4774,0.89144 -5.11414,-0.72993 0.95511,-0.58549 3.16198,0.0762 4.13883,-0.4861 -0.33079,1.04054 1.04054,0.88679 0.97531,1.21603 m 9.4937,-1.45985 c 0.71129,0.21898 0.74545,0.21898 1.4583,0 0.34943,0.75943 -1.80929,0.75943 -1.4583,0 m -22.88241,-0.48766 c 0.89921,0.15686 2.42429,-0.31371 2.92126,0.24538 -0.51405,-0.14753 -2.66967,0.53114 -2.92126,-0.24538 m -14.36246,0 c -0.24072,-0.0296 -2.14318,0.82311 -2.4336,-0.24072 0.73924,0.15065 2.09659,-0.31371 2.4336,0.24072 m 3.40891,0 c -1.16633,-0.34011 -2.28917,0.61811 -2.92125,0 0.37272,-0.38515 3.35455,-0.38515 2.92125,0 m 9.00605,-2.4336 c 0.8992,0.15686 2.42428,-0.31527 2.92126,0.24538 -0.90076,-0.1553 -2.42429,0.31371 -2.92126,-0.24538 m 44.54568,0.4861 c -2.69763,-0.23606 -4.56593,0.57462 -6.08635,-0.24072 2.49884,0.29663 4.99456,-0.59481 6.08635,0.24072 m -44.30341,-1.21603 c 0.96909,0.16928 2.69607,-0.42397 2.92126,0.48766 -0.41156,-0.48766 -4.09691,0.001 -2.92126,-0.48766 m 42.11363,-2.4336 c -0.46125,-0.10871 -1.46762,0.3308 -1.21758,-0.4861 l 1.21758,0 z m -34.80971,-3.65274 c -0.90076,-0.15375 -2.42584,0.31682 -2.9197,-0.24227 0.59326,-0.0698 2.92591,-0.26557 2.9197,0.24227 m 28.72337,0.48766 c -0.11953,-0.76254 0.84019,-0.64141 0.24227,-1.21603 1.45519,0.62432 3.08122,-0.41932 4.38266,0.24227 -1.5639,0.92717 -2.38856,0.27489 -4.62493,0.97376 m 6.32861,-0.97376 c 0.87436,-0.56219 1.5375,0.11182 2.43516,-0.24227 -0.27955,1.04675 -1.62758,0.78273 -2.43516,0.24227 m -36.75721,-0.24227 c -4.42304,-0.17239 -8.16119,0.37894 -11.92575,-0.24383 2.92436,-0.33856 8.30563,-0.41932 11.92575,0.24383 m 25.31601,-1.94906 c 1.89315,-1.00792 1.75337,0.95822 0,0 m 5.11259,0 c -1.40861,0.0636 -2.12766,0.0296 -2.92126,0.24383 -0.12114,-0.95046 3.44774,-0.47368 2.92126,-0.24383 m -27.99344,-0.24382 c -0.48144,-0.50008 -0.48144,-0.22985 0,-0.72838 -0.18792,-0.0544 -0.48144,-0.006 -0.4861,-0.24382 l 1.21602,0 c 0.0419,0.60879 -0.54511,0.59015 -0.72992,0.9722 m 5.35486,-1.45986 c -0.76099,0.52338 -2.25967,0.104 -2.92126,-0.24227 0.84485,-0.20655 1.7161,-0.18947 2.92126,0.24227 m -5.59869,-1.45985 c 0.81845,-0.1553 2.87001,-0.13356 3.89346,0.24383 -0.88523,0.62121 -2.80789,0.54667 -3.89346,-0.24383 m 24.34226,0 c 0.7439,-0.19413 1.63068,-0.41776 2.4336,0 -0.36651,0.29663 -2.09659,0.47834 -2.4336,0 m 6.33016,-0.24382 c -0.81845,0.26867 -1.67572,0.29507 -2.19288,-0.24383 0.72371,0.0112 1.94595,-0.72527 2.19288,0.24383 m 7.05854,-0.48766 c -1.63068,0.0327 -3.69932,0.60103 -6.08634,0 1.4816,-0.19568 4.25221,-0.62432 6.08634,0 m -3.40735,-1.70212 c -1.63535,1.09489 -3.52384,-0.38981 0,0 m -2.67899,-9.24987 c -0.11032,-0.36652 3.45085,-0.43485 4.13884,0 -2.0469,0.17704 -1.86985,0.0404 -4.13884,0 m -123.16958,0.24382 c -1.12284,0.1289 -2.59667,-0.81223 -3.16353,0.24228 -0.0388,-1.51887 2.49573,-0.84485 3.16353,-0.24228 m -5.59869,-1.21758 c 3.67759,-0.3836 -0.75167,1.12906 -1.70367,0.48766 0.43484,0.0481 0.8728,-0.40069 1.70367,-0.48766 m -9.49369,0.48766 c 2.22394,-0.29197 4.52554,-1.60584 4.38111,-0.24538 1.07159,0.18015 1.98943,-0.74701 2.19133,0.4861 -4.34073,0.16928 -8.5215,0.49542 -12.65723,0.4892 1.33561,-1.72231 3.57508,-0.40068 6.08479,-0.72992 m 105.64359,-2.19133 c -1.16478,0.0296 -2.2022,-0.0714 -2.92126,-0.48921 0.49387,0.0186 2.61686,-0.42243 2.92126,0.48921 m -6.08479,-1.21758 c -0.70042,0.0497 -1.23621,-0.0637 -1.45985,-0.48766 0.50163,0.14754 1.6897,-0.39291 1.45985,0.48766 m 44.54568,-0.72993 c -0.7408,-0.15375 -2.0966,0.31216 -2.43361,-0.24538 0.76565,0.2811 0.59016,-0.38049 0.9722,-0.48765 -0.10101,0.69265 2.11989,0.29197 1.46141,0.73303 m -17.76982,-2.19133 c 0.97997,0.1553 2.58891,-0.31682 3.16353,0.24383 -0.97841,-0.15686 -2.58735,0.31526 -3.16353,-0.24383 m -0.24227,0.24383 c -1.22069,0.34011 -3.2769,-0.2547 -4.62649,0.48765 0.67868,0.42398 2.08728,0.12275 0.72993,0.72682 2.64637,-0.7408 6.7324,-0.54512 9.25142,0.24693 -3.9944,-0.62742 -7.12843,1.46917 -10.4659,-0.24693 -0.47367,0.19413 -1.47693,1.1011 -1.94906,0.48765 1.66641,-0.41311 0.11344,-1.24243 1.21603,-2.18978 2.0997,0.0124 4.3516,-0.13356 5.84407,0.48766 m -132.90866,-1.21914 c 3.21789,-0.30284 2.72092,0.72993 0,0 m 13.63098,0.24383 c -1.32163,-0.26401 -2.51281,0.77186 -3.16508,-0.24383 1.00792,-0.27022 3.18061,-0.25314 3.16508,0.24383 m 92.50026,-0.24383 c -0.58238,-0.14753 -1.7658,0.30751 -1.9475,-0.24227 0.68023,-0.29042 1.48159,-0.27644 1.9475,0.24227 m 1.46141,-1.21602 c -0.99705,-0.059 -2.34664,0.23761 -2.67743,-0.4861 1.00171,-0.28887 2.53766,0.18947 2.67743,0.4861 m -61.82939,-0.97375 c -5.64839,0.27022 2.41962,-1.04675 0,0 m 42.84199,-0.24072 c -3.0222,0.49852 -6.51031,0.51094 -9.73752,0 2.90417,-0.19879 6.89858,-0.54512 9.73752,0 m 34.80816,-0.24694 c 0.45659,-0.0528 1.6136,-0.62587 1.94906,0 -0.65073,-0.13977 -1.52198,0.72061 -1.94906,0 m -107.58955,0 c -1.10576,-0.27488 -3.34057,0.58239 -3.65273,-0.48454 1.40549,0.45504 2.78614,-0.36031 3.65273,0.48454 m 38.70161,-0.24227 c 1.09179,0.34633 2.08573,-0.65693 2.67899,0 -1.00326,0.1553 -2.0438,0.74546 -2.67899,0 m 87.87533,-0.73148 c -1.22976,-0.7254 -2.07571,-0.37441 -2.27407,-0.21102 l -2.35086,-0.0312 c -1.70368,0.45038 2.44758,-0.005 1.45985,0.48765 0.32769,0.1522 1.87917,-0.54667 3.16508,-0.24538"
       id="path78"
       style="fill:#272a2b;fill-opacity:1;fill-rule:nonzero;stroke:none" />
    <path
       d="m 358.91427,676.40575 c -3.24841,0 -6.49683,0 -9.74524,0 0,3.27785 0,6.55573 0,9.83361 3.24841,0 6.49683,0 9.74524,0 0,-3.27788 0,-6.55576 0,-9.83361 z"
       id="rect2995-7-9-04-4-7-8"
       style="fill:#272a2b;fill-opacity:1;fill-rule:nonzero;stroke:none" />
    <path
       d="m 307.54406,645.62835 c -0.97855,0 -1.9571,0 -2.93565,0 0,0.97854 0,1.9571 0,2.93565 0.97855,0 1.9571,0 2.93565,0 0,-0.97855 0,-1.95711 0,-2.93565 z"
       id="rect2995-7-9-04-4-7-1"
       style="fill:#272a2b;fill-opacity:1;fill-rule:nonzero;stroke:none" />
    <path
       d="m 326.57192,692.59109 c 0.83331,0 1.66662,0 2.5,0 0,0.8333 0,1.66661 0,2.49994 -0.83338,0 -1.66669,0 -2.5,0 0,-0.83333 0,-1.66664 0,-2.49994 z"
       id="rect3102-7"
       style="fill:#272b2b;fill-opacity:1;stroke:none" />
  </g>
</svg>
